<svg id="visual" viewBox="0 0 900 600" width="900" height="600" xmlns="http://www.w3.org/2000/svg" xmlns:xlink="http://www.w3.org/1999/xlink" version="1.1"><g stroke-width="1" stroke-linejoin="bevel"><path d="M431 298L475 215L425 239Z" fill="#f1f1f1" stroke="#f1f1f1"></path><path d="M431 298L536 271L475 215Z" fill="#fdfdfd" stroke="#fdfdfd"></path><path d="M431 298L439 374L536 271Z" fill="#f6f6f6" stroke="#f6f6f6"></path><path d="M536 271L579 208L475 215Z" fill="#f3f3f3" stroke="#f3f3f3"></path><path d="M579 208L482 128L475 215Z" fill="#f3f3f3" stroke="#f3f3f3"></path><path d="M475 215L411 138L425 239Z" fill="#f3f3f3" stroke="#f3f3f3"></path><path d="M482 128L411 138L475 215Z" fill="#ffffff" stroke="#ffffff"></path><path d="M425 239L308 209L431 298Z" fill="#f4f4f4" stroke="#f4f4f4"></path><path d="M431 298L269 289L439 374Z" fill="#ffffff" stroke="#ffffff"></path><path d="M616 380L608 282L536 271Z" fill="#f7f7f7" stroke="#f7f7f7"></path><path d="M536 271L608 282L579 208Z" fill="#f6f6f6" stroke="#f6f6f6"></path><path d="M411 138L308 209L425 239Z" fill="#ffffff" stroke="#ffffff"></path><path d="M439 374L524 426L536 271Z" fill="#fafafa" stroke="#fafafa"></path><path d="M524 426L616 380L536 271Z" fill="#fcfcfc" stroke="#fcfcfc"></path><path d="M308 209L269 289L431 298Z" fill="#f9f9f9" stroke="#f9f9f9"></path><path d="M439 374L423 487L524 426Z" fill="#f1f1f1" stroke="#f1f1f1"></path><path d="M422 0L315 105L411 138Z" fill="#f7f7f7" stroke="#f7f7f7"></path><path d="M411 138L315 105L308 209Z" fill="#fafafa" stroke="#fafafa"></path><path d="M164 164L209 312L269 289Z" fill="#f7f7f7" stroke="#f7f7f7"></path><path d="M316 438L423 487L439 374Z" fill="#ffffff" stroke="#ffffff"></path><path d="M524 426L630 527L616 380Z" fill="#fdfdfd" stroke="#fdfdfd"></path><path d="M269 289L316 438L439 374Z" fill="#f0f0f0" stroke="#f0f0f0"></path><path d="M718 310L698 217L608 282Z" fill="#fdfdfd" stroke="#fdfdfd"></path><path d="M608 282L698 217L579 208Z" fill="#f4f4f4" stroke="#f4f4f4"></path><path d="M579 208L628 63L482 128Z" fill="#ffffff" stroke="#ffffff"></path><path d="M418 600L474 512L423 487Z" fill="#f9f9f9" stroke="#f9f9f9"></path><path d="M423 487L474 512L524 426Z" fill="#ffffff" stroke="#ffffff"></path><path d="M213 397L313 462L316 438Z" fill="#f4f4f4" stroke="#f4f4f4"></path><path d="M316 438L313 462L423 487Z" fill="#fcfcfc" stroke="#fcfcfc"></path><path d="M616 380L718 310L608 282Z" fill="#f9f9f9" stroke="#f9f9f9"></path><path d="M718 383L718 310L616 380Z" fill="#fcfcfc" stroke="#fcfcfc"></path><path d="M698 217L628 63L579 208Z" fill="#f3f3f3" stroke="#f3f3f3"></path><path d="M482 128L422 0L411 138Z" fill="#f3f3f3" stroke="#f3f3f3"></path><path d="M164 164L269 289L308 209Z" fill="#f0f0f0" stroke="#f0f0f0"></path><path d="M269 289L213 397L316 438Z" fill="#f4f4f4" stroke="#f4f4f4"></path><path d="M566 0L467 0L482 128Z" fill="#fafafa" stroke="#fafafa"></path><path d="M467 0L422 0L482 128Z" fill="#fcfcfc" stroke="#fcfcfc"></path><path d="M630 527L718 383L616 380Z" fill="#fcfcfc" stroke="#fcfcfc"></path><path d="M628 63L566 0L482 128Z" fill="#f7f7f7" stroke="#f7f7f7"></path><path d="M209 312L213 397L269 289Z" fill="#fcfcfc" stroke="#fcfcfc"></path><path d="M698 217L690 66L628 63Z" fill="#f9f9f9" stroke="#f9f9f9"></path><path d="M628 63L712 0L566 0Z" fill="#f4f4f4" stroke="#f4f4f4"></path><path d="M772 204L690 66L698 217Z" fill="#fdfdfd" stroke="#fdfdfd"></path><path d="M474 512L630 527L524 426Z" fill="#f3f3f3" stroke="#f3f3f3"></path><path d="M794 330L772 204L718 310Z" fill="#fafafa" stroke="#fafafa"></path><path d="M718 310L772 204L698 217Z" fill="#f7f7f7" stroke="#f7f7f7"></path><path d="M181 64L164 164L315 105Z" fill="#f7f7f7" stroke="#f7f7f7"></path><path d="M315 105L164 164L308 209Z" fill="#fafafa" stroke="#fafafa"></path><path d="M137 477L178 515L213 397Z" fill="#f3f3f3" stroke="#f3f3f3"></path><path d="M422 0L274 0L315 105Z" fill="#f3f3f3" stroke="#f3f3f3"></path><path d="M718 383L794 330L718 310Z" fill="#fcfcfc" stroke="#fcfcfc"></path><path d="M807 428L794 330L718 383Z" fill="#f6f6f6" stroke="#f6f6f6"></path><path d="M268 600L418 600L313 462Z" fill="#ffffff" stroke="#ffffff"></path><path d="M313 462L418 600L423 487Z" fill="#fafafa" stroke="#fafafa"></path><path d="M474 512L533 600L630 527Z" fill="#f7f7f7" stroke="#f7f7f7"></path><path d="M418 600L533 600L474 512Z" fill="#fcfcfc" stroke="#fcfcfc"></path><path d="M274 0L181 64L315 105Z" fill="#f1f1f1" stroke="#f1f1f1"></path><path d="M786 0L712 0L690 66Z" fill="#f1f1f1" stroke="#f1f1f1"></path><path d="M690 66L712 0L628 63Z" fill="#f9f9f9" stroke="#f9f9f9"></path><path d="M627 600L714 539L630 527Z" fill="#fcfcfc" stroke="#fcfcfc"></path><path d="M630 527L714 539L718 383Z" fill="#f1f1f1" stroke="#f1f1f1"></path><path d="M533 600L627 600L630 527Z" fill="#fcfcfc" stroke="#fcfcfc"></path><path d="M714 539L807 428L718 383Z" fill="#f7f7f7" stroke="#f7f7f7"></path><path d="M213 397L178 515L313 462Z" fill="#f6f6f6" stroke="#f6f6f6"></path><path d="M137 477L213 397L80 372Z" fill="#f1f1f1" stroke="#f1f1f1"></path><path d="M274 0L190 0L181 64Z" fill="#f9f9f9" stroke="#f9f9f9"></path><path d="M70 197L209 312L164 164Z" fill="#fdfdfd" stroke="#fdfdfd"></path><path d="M772 204L823 109L690 66Z" fill="#f7f7f7" stroke="#f7f7f7"></path><path d="M900 171L823 109L772 204Z" fill="#f4f4f4" stroke="#f4f4f4"></path><path d="M900 328L772 204L794 330Z" fill="#f7f7f7" stroke="#f7f7f7"></path><path d="M178 515L268 600L313 462Z" fill="#f9f9f9" stroke="#f9f9f9"></path><path d="M80 372L213 397L209 312Z" fill="#fafafa" stroke="#fafafa"></path><path d="M178 515L204 600L268 600Z" fill="#f7f7f7" stroke="#f7f7f7"></path><path d="M71 338L80 372L209 312Z" fill="#f6f6f6" stroke="#f6f6f6"></path><path d="M70 197L164 164L92 105Z" fill="#fdfdfd" stroke="#fdfdfd"></path><path d="M92 105L164 164L181 64Z" fill="#ffffff" stroke="#ffffff"></path><path d="M70 197L71 338L209 312Z" fill="#f3f3f3" stroke="#f3f3f3"></path><path d="M79 0L92 105L181 64Z" fill="#ffffff" stroke="#ffffff"></path><path d="M823 109L786 0L690 66Z" fill="#f0f0f0" stroke="#f0f0f0"></path><path d="M714 539L825 505L807 428Z" fill="#f1f1f1" stroke="#f1f1f1"></path><path d="M627 600L721 600L714 539Z" fill="#f7f7f7" stroke="#f7f7f7"></path><path d="M63 600L204 600L178 515Z" fill="#f6f6f6" stroke="#f6f6f6"></path><path d="M827 600L825 505L714 539Z" fill="#f4f4f4" stroke="#f4f4f4"></path><path d="M807 428L900 328L794 330Z" fill="#fcfcfc" stroke="#fcfcfc"></path><path d="M900 432L900 328L807 428Z" fill="#f3f3f3" stroke="#f3f3f3"></path><path d="M823 109L900 0L786 0Z" fill="#f0f0f0" stroke="#f0f0f0"></path><path d="M900 328L900 171L772 204Z" fill="#f9f9f9" stroke="#f9f9f9"></path><path d="M900 171L900 99L823 109Z" fill="#fdfdfd" stroke="#fdfdfd"></path><path d="M825 505L900 432L807 428Z" fill="#f1f1f1" stroke="#f1f1f1"></path><path d="M0 176L0 263L70 197Z" fill="#f9f9f9" stroke="#f9f9f9"></path><path d="M70 197L0 263L71 338Z" fill="#f3f3f3" stroke="#f3f3f3"></path><path d="M71 338L0 430L80 372Z" fill="#f3f3f3" stroke="#f3f3f3"></path><path d="M80 372L0 430L137 477Z" fill="#f6f6f6" stroke="#f6f6f6"></path><path d="M137 477L63 600L178 515Z" fill="#fdfdfd" stroke="#fdfdfd"></path><path d="M190 0L79 0L181 64Z" fill="#f6f6f6" stroke="#f6f6f6"></path><path d="M0 118L0 176L70 197Z" fill="#f0f0f0" stroke="#f0f0f0"></path><path d="M0 118L70 197L92 105Z" fill="#f1f1f1" stroke="#f1f1f1"></path><path d="M900 600L900 487L825 505Z" fill="#f9f9f9" stroke="#f9f9f9"></path><path d="M825 505L900 487L900 432Z" fill="#ffffff" stroke="#ffffff"></path><path d="M0 0L0 118L92 105Z" fill="#fcfcfc" stroke="#fcfcfc"></path><path d="M721 600L827 600L714 539Z" fill="#f4f4f4" stroke="#f4f4f4"></path><path d="M0 263L0 430L71 338Z" fill="#f9f9f9" stroke="#f9f9f9"></path><path d="M900 99L900 0L823 109Z" fill="#f0f0f0" stroke="#f0f0f0"></path><path d="M0 516L63 600L137 477Z" fill="#fdfdfd" stroke="#fdfdfd"></path><path d="M0 430L0 516L137 477Z" fill="#f0f0f0" stroke="#f0f0f0"></path><path d="M79 0L0 0L92 105Z" fill="#ffffff" stroke="#ffffff"></path><path d="M827 600L900 600L825 505Z" fill="#f9f9f9" stroke="#f9f9f9"></path><path d="M0 516L0 600L63 600Z" fill="#fafafa" stroke="#fafafa"></path></g></svg>