<svg id="visual" viewBox="0 0 900 600" width="900" height="600" xmlns="http://www.w3.org/2000/svg" xmlns:xlink="http://www.w3.org/1999/xlink" version="1.1"><rect x="0" y="0" width="900" height="600" fill="#fff"></rect><path d="M343 600L361.8 585.7C380.7 571.3 418.3 542.7 431.2 514.2C444 485.7 432 457.3 416 428.8C400 400.3 380 371.7 385.2 343C390.3 314.3 420.7 285.7 428.5 257C436.3 228.3 421.7 199.7 433.5 171.2C445.3 142.7 483.7 114.3 484 85.8C484.3 57.3 446.7 28.7 427.8 14.3L409 0L900 0L900 14.3C900 28.7 900 57.3 900 85.8C900 114.3 900 142.7 900 171.2C900 199.7 900 228.3 900 257C900 285.7 900 314.3 900 343C900 371.7 900 400.3 900 428.8C900 457.3 900 485.7 900 514.2C900 542.7 900 571.3 900 585.7L900 600Z" fill="#3e4194"></path><path d="M478 600L468.7 585.7C459.3 571.3 440.7 542.7 453.7 514.2C466.7 485.7 511.3 457.3 521.3 428.8C531.3 400.3 506.7 371.7 508.7 343C510.7 314.3 539.3 285.7 560.7 257C582 228.3 596 199.7 575 171.2C554 142.7 498 114.3 492.5 85.8C487 57.3 532 28.7 554.5 14.3L577 0L900 0L900 14.3C900 28.7 900 57.3 900 85.8C900 114.3 900 142.7 900 171.2C900 199.7 900 228.3 900 257C900 285.7 900 314.3 900 343C900 371.7 900 400.3 900 428.8C900 457.3 900 485.7 900 514.2C900 542.7 900 571.3 900 585.7L900 600Z" fill="#403ea7"></path><path d="M618 600L626 585.7C634 571.3 650 542.7 645.5 514.2C641 485.7 616 457.3 605.8 428.8C595.7 400.3 600.3 371.7 590 343C579.7 314.3 554.3 285.7 557.5 257C560.7 228.3 592.3 199.7 613.3 171.2C634.3 142.7 644.7 114.3 653 85.8C661.3 57.3 667.7 28.7 670.8 14.3L674 0L900 0L900 14.3C900 28.7 900 57.3 900 85.8C900 114.3 900 142.7 900 171.2C900 199.7 900 228.3 900 257C900 285.7 900 314.3 900 343C900 371.7 900 400.3 900 428.8C900 457.3 900 485.7 900 514.2C900 542.7 900 571.3 900 585.7L900 600Z" fill="#4539b9"></path><path d="M716 600L713.2 585.7C710.3 571.3 704.7 542.7 705.2 514.2C705.7 485.7 712.3 457.3 710.3 428.8C708.3 400.3 697.7 371.7 692 343C686.3 314.3 685.7 285.7 677.7 257C669.7 228.3 654.3 199.7 648.8 171.2C643.3 142.7 647.7 114.3 650.2 85.8C652.7 57.3 653.3 28.7 653.7 14.3L654 0L900 0L900 14.3C900 28.7 900 57.3 900 85.8C900 114.3 900 142.7 900 171.2C900 199.7 900 228.3 900 257C900 285.7 900 314.3 900 343C900 371.7 900 400.3 900 428.8C900 457.3 900 485.7 900 514.2C900 542.7 900 571.3 900 585.7L900 600Z" fill="#4e32ca"></path><path d="M788 600L784.7 585.7C781.3 571.3 774.7 542.7 776.5 514.2C778.3 485.7 788.7 457.3 784 428.8C779.3 400.3 759.7 371.7 747 343C734.3 314.3 728.7 285.7 740.7 257C752.7 228.3 782.3 199.7 787.8 171.2C793.3 142.7 774.7 114.3 768.5 85.8C762.3 57.3 768.7 28.7 771.8 14.3L775 0L900 0L900 14.3C900 28.7 900 57.3 900 85.8C900 114.3 900 142.7 900 171.2C900 199.7 900 228.3 900 257C900 285.7 900 314.3 900 343C900 371.7 900 400.3 900 428.8C900 457.3 900 485.7 900 514.2C900 542.7 900 571.3 900 585.7L900 600Z" fill="#5a25d9"></path></svg>