<svg id="visual" viewBox="0 0 900 600" width="900" height="600" xmlns="http://www.w3.org/2000/svg" xmlns:xlink="http://www.w3.org/1999/xlink" version="1.1"><rect x="0" y="0" width="900" height="600" fill="#fff"></rect><path d="M617 600L622.2 583.3C627.3 566.7 637.7 533.3 643 500C648.3 466.7 648.7 433.3 643.2 400C637.7 366.7 626.3 333.3 615.7 300C605 266.7 595 233.3 597.2 200C599.3 166.7 613.7 133.3 620.8 100C628 66.7 628 33.3 628 16.7L628 0L900 0L900 16.7C900 33.3 900 66.7 900 100C900 133.3 900 166.7 900 200C900 233.3 900 266.7 900 300C900 333.3 900 366.7 900 400C900 433.3 900 466.7 900 500C900 533.3 900 566.7 900 583.3L900 600Z" fill="#3E4194" stroke-linecap="round" stroke-linejoin="miter"></path></svg>