<svg id="visual" viewBox="0 0 900 600" width="900" height="600" xmlns="http://www.w3.org/2000/svg" xmlns:xlink="http://www.w3.org/1999/xlink" version="1.1"><g transform="translate(449.8707428978153 291.02167987886287)"><path d="M137.4 -165.7C176.6 -130.8 206 -86.1 224.7 -31.9C243.5 22.3 251.7 86.2 229 138.7C206.4 191.2 153 232.3 96.8 242.5C40.7 252.8 -18.1 232.1 -74.6 209.5C-131 187 -185 162.5 -214.5 119.8C-244 77.1 -249.1 16.1 -234.9 -37.5C-220.8 -91.2 -187.5 -137.5 -145.2 -171.9C-102.8 -206.2 -51.4 -228.6 -1.2 -227.2C49.1 -225.8 98.1 -200.6 137.4 -165.7" fill="#3e4194"></path></g></svg>