<svg id="visual" viewBox="0 0 900 600" width="900" height="600" xmlns="http://www.w3.org/2000/svg" xmlns:xlink="http://www.w3.org/1999/xlink" version="1.1"><rect x="0" y="0" width="900" height="600" fill="#fff"></rect><defs><linearGradient id="grad1_0" x1="33.3%" y1="100%" x2="100%" y2="0%"><stop offset="20%" stop-color="#ffffff" stop-opacity="1"></stop><stop offset="80%" stop-color="#ffffff" stop-opacity="1"></stop></linearGradient></defs><defs><linearGradient id="grad2_0" x1="0%" y1="100%" x2="66.7%" y2="0%"><stop offset="20%" stop-color="#ffffff" stop-opacity="1"></stop><stop offset="80%" stop-color="#ffffff" stop-opacity="1"></stop></linearGradient></defs><g transform="translate(900, 600)"><path d="M-486.7 0C-443.5 -51.5 -400.2 -103.1 -374.2 -155C-348.1 -206.9 -339.2 -259.1 -312.5 -312.5C-285.8 -365.9 -241.3 -420.5 -186.3 -449.7C-131.2 -478.9 -65.6 -482.8 0 -486.7L0 0Z" fill="#3e4194"></path></g><g transform="translate(0, 0)"><path d="M486.7 0C450.6 53.7 414.4 107.4 389.9 161.5C365.3 215.6 352.4 270 321.7 321.7C291.1 373.5 242.8 422.6 186.3 449.7C129.7 476.8 64.9 481.8 0 486.7L0 0Z" fill="#3e4194"></path></g></svg>