<svg id="visual" viewBox="0 0 900 600" width="900" height="600" xmlns="http://www.w3.org/2000/svg" xmlns:xlink="http://www.w3.org/1999/xlink" version="1.1"><path d="M0 181L13.7 171C27.3 161 54.7 141 82 149C109.3 157 136.7 193 163.8 198C191 203 218 177 245.2 165C272.3 153 299.7 155 327 162C354.3 169 381.7 181 409 183C436.3 185 463.7 177 491 183C518.3 189 545.7 209 573 209C600.3 209 627.7 189 654.8 183C682 177 709 185 736.2 197C763.3 209 790.7 225 818 225C845.3 225 872.7 209 886.3 201L900 193L900 0L886.3 0C872.7 0 845.3 0 818 0C790.7 0 763.3 0 736.2 0C709 0 682 0 654.8 0C627.7 0 600.3 0 573 0C545.7 0 518.3 0 491 0C463.7 0 436.3 0 409 0C381.7 0 354.3 0 327 0C299.7 0 272.3 0 245.2 0C218 0 191 0 163.8 0C136.7 0 109.3 0 82 0C54.7 0 27.3 0 13.7 0L0 0Z" fill="#ffffff"></path><path d="M0 295L13.7 283C27.3 271 54.7 247 82 249C109.3 251 136.7 279 163.8 274C191 269 218 231 245.2 213C272.3 195 299.7 197 327 214C354.3 231 381.7 263 409 273C436.3 283 463.7 271 491 272C518.3 273 545.7 287 573 280C600.3 273 627.7 245 654.8 245C682 245 709 273 736.2 284C763.3 295 790.7 289 818 279C845.3 269 872.7 255 886.3 248L900 241L900 191L886.3 199C872.7 207 845.3 223 818 223C790.7 223 763.3 207 736.2 195C709 183 682 175 654.8 181C627.7 187 600.3 207 573 207C545.7 207 518.3 187 491 181C463.7 175 436.3 183 409 181C381.7 179 354.3 167 327 160C299.7 153 272.3 151 245.2 163C218 175 191 201 163.8 196C136.7 191 109.3 155 82 147C54.7 139 27.3 159 13.7 169L0 179Z" fill="#8983bc"></path><path d="M0 349L13.7 343C27.3 337 54.7 325 82 327C109.3 329 136.7 345 163.8 342C191 339 218 317 245.2 297C272.3 277 299.7 259 327 267C354.3 275 381.7 309 409 325C436.3 341 463.7 339 491 338C518.3 337 545.7 337 573 330C600.3 323 627.7 309 654.8 313C682 317 709 339 736.2 348C763.3 357 790.7 353 818 348C845.3 343 872.7 337 886.3 334L900 331L900 239L886.3 246C872.7 253 845.3 267 818 277C790.7 287 763.3 293 736.2 282C709 271 682 243 654.8 243C627.7 243 600.3 271 573 278C545.7 285 518.3 271 491 270C463.7 269 436.3 281 409 271C381.7 261 354.3 229 327 212C299.7 195 272.3 193 245.2 211C218 229 191 267 163.8 272C136.7 277 109.3 249 82 247C54.7 245 27.3 269 13.7 281L0 293Z" fill="#3e4194"></path><path d="M0 511L13.7 515C27.3 519 54.7 527 82 514C109.3 501 136.7 467 163.8 459C191 451 218 469 245.2 484C272.3 499 299.7 511 327 515C354.3 519 381.7 515 409 502C436.3 489 463.7 467 491 472C518.3 477 545.7 509 573 513C600.3 517 627.7 493 654.8 485C682 477 709 485 736.2 497C763.3 509 790.7 525 818 530C845.3 535 872.7 529 886.3 526L900 523L900 329L886.3 332C872.7 335 845.3 341 818 346C790.7 351 763.3 355 736.2 346C709 337 682 315 654.8 311C627.7 307 600.3 321 573 328C545.7 335 518.3 335 491 336C463.7 337 436.3 339 409 323C381.7 307 354.3 273 327 265C299.7 257 272.3 275 245.2 295C218 315 191 337 163.8 340C136.7 343 109.3 327 82 325C54.7 323 27.3 335 13.7 341L0 347Z" fill="#8983bc"></path><path d="M0 601L13.7 601C27.3 601 54.7 601 82 601C109.3 601 136.7 601 163.8 601C191 601 218 601 245.2 601C272.3 601 299.7 601 327 601C354.3 601 381.7 601 409 601C436.3 601 463.7 601 491 601C518.3 601 545.7 601 573 601C600.3 601 627.7 601 654.8 601C682 601 709 601 736.2 601C763.3 601 790.7 601 818 601C845.3 601 872.7 601 886.3 601L900 601L900 521L886.3 524C872.7 527 845.3 533 818 528C790.7 523 763.3 507 736.2 495C709 483 682 475 654.8 483C627.7 491 600.3 515 573 511C545.7 507 518.3 475 491 470C463.7 465 436.3 487 409 500C381.7 513 354.3 517 327 513C299.7 509 272.3 497 245.2 482C218 467 191 449 163.8 457C136.7 465 109.3 499 82 512C54.7 525 27.3 517 13.7 513L0 509Z" fill="#ffffff"></path></svg>