<svg id="visual" viewBox="0 0 900 600" width="900" height="600" xmlns="http://www.w3.org/2000/svg" xmlns:xlink="http://www.w3.org/1999/xlink" version="1.1"><g stroke-width="1" stroke-linejoin="bevel"><path d="M428 264L423 379L499 329Z" fill="#8a87be" stroke="#8a87be"></path><path d="M428 264L324 330L423 379Z" fill="#b1add4" stroke="#b1add4"></path><path d="M324 330L329 369L423 379Z" fill="#4d529f" stroke="#4d529f"></path><path d="M460 522L510 424L423 379Z" fill="#b1add4" stroke="#b1add4"></path><path d="M423 379L510 424L499 329Z" fill="#d8d5e9" stroke="#d8d5e9"></path><path d="M499 329L475 175L428 264Z" fill="#7775b4" stroke="#7775b4"></path><path d="M428 264L361 183L324 330Z" fill="#9e9ac9" stroke="#9e9ac9"></path><path d="M510 424L592 324L499 329Z" fill="#c5c1df" stroke="#c5c1df"></path><path d="M499 329L628 229L475 175Z" fill="#c5c1df" stroke="#c5c1df"></path><path d="M475 175L361 183L428 264Z" fill="#9e9ac9" stroke="#9e9ac9"></path><path d="M329 369L367 482L423 379Z" fill="#d8d5e9" stroke="#d8d5e9"></path><path d="M361 183L277 225L324 330Z" fill="#8a87be" stroke="#8a87be"></path><path d="M324 330L202 365L329 369Z" fill="#c5c1df" stroke="#c5c1df"></path><path d="M329 369L294 512L367 482Z" fill="#7775b4" stroke="#7775b4"></path><path d="M367 482L460 522L423 379Z" fill="#8a87be" stroke="#8a87be"></path><path d="M510 424L626 405L592 324Z" fill="#ffffff" stroke="#ffffff"></path><path d="M620 496L626 405L510 424Z" fill="#ffffff" stroke="#ffffff"></path><path d="M679 216L628 229L703 288Z" fill="#6263a9" stroke="#6263a9"></path><path d="M592 324L628 229L499 329Z" fill="#ffffff" stroke="#ffffff"></path><path d="M277 225L235 275L324 330Z" fill="#8a87be" stroke="#8a87be"></path><path d="M628 229L516 102L475 175Z" fill="#ebeaf4" stroke="#ebeaf4"></path><path d="M475 175L391 88L361 183Z" fill="#d8d5e9" stroke="#d8d5e9"></path><path d="M361 183L299 125L277 225Z" fill="#ebeaf4" stroke="#ebeaf4"></path><path d="M516 102L391 88L475 175Z" fill="#8a87be" stroke="#8a87be"></path><path d="M277 225L163 193L235 275Z" fill="#6263a9" stroke="#6263a9"></path><path d="M202 365L294 512L329 369Z" fill="#7775b4" stroke="#7775b4"></path><path d="M367 482L421 600L460 522Z" fill="#c5c1df" stroke="#c5c1df"></path><path d="M235 275L202 365L324 330Z" fill="#9e9ac9" stroke="#9e9ac9"></path><path d="M391 88L299 125L361 183Z" fill="#d8d5e9" stroke="#d8d5e9"></path><path d="M460 522L620 496L510 424Z" fill="#d8d5e9" stroke="#d8d5e9"></path><path d="M703 288L628 229L592 324Z" fill="#b1add4" stroke="#b1add4"></path><path d="M628 229L633 124L516 102Z" fill="#b1add4" stroke="#b1add4"></path><path d="M703 288L592 324L626 405Z" fill="#ebeaf4" stroke="#ebeaf4"></path><path d="M717 424L703 288L626 405Z" fill="#8a87be" stroke="#8a87be"></path><path d="M679 216L633 124L628 229Z" fill="#4d529f" stroke="#4d529f"></path><path d="M316 600L421 600L367 482Z" fill="#9e9ac9" stroke="#9e9ac9"></path><path d="M460 522L506 600L620 496Z" fill="#7775b4" stroke="#7775b4"></path><path d="M421 600L506 600L460 522Z" fill="#c5c1df" stroke="#c5c1df"></path><path d="M661 600L666 500L620 496Z" fill="#ffffff" stroke="#ffffff"></path><path d="M620 496L666 500L626 405Z" fill="#7775b4" stroke="#7775b4"></path><path d="M666 500L717 424L626 405Z" fill="#9e9ac9" stroke="#9e9ac9"></path><path d="M190 600L316 600L294 512Z" fill="#ebeaf4" stroke="#ebeaf4"></path><path d="M294 512L316 600L367 482Z" fill="#ebeaf4" stroke="#ebeaf4"></path><path d="M202 365L170 464L294 512Z" fill="#c5c1df" stroke="#c5c1df"></path><path d="M299 125L163 193L277 225Z" fill="#344194" stroke="#344194"></path><path d="M235 275L122 292L202 365Z" fill="#7775b4" stroke="#7775b4"></path><path d="M93 406L120 461L170 464Z" fill="#6263a9" stroke="#6263a9"></path><path d="M760 212L688 137L679 216Z" fill="#9e9ac9" stroke="#9e9ac9"></path><path d="M679 216L688 137L633 124Z" fill="#b1add4" stroke="#b1add4"></path><path d="M760 212L679 216L703 288Z" fill="#8a87be" stroke="#8a87be"></path><path d="M163 193L122 292L235 275Z" fill="#4d529f" stroke="#4d529f"></path><path d="M507 0L427 0L516 102Z" fill="#ebeaf4" stroke="#ebeaf4"></path><path d="M516 102L427 0L391 88Z" fill="#c5c1df" stroke="#c5c1df"></path><path d="M296 0L238 62L299 125Z" fill="#c5c1df" stroke="#c5c1df"></path><path d="M299 125L238 62L163 193Z" fill="#d8d5e9" stroke="#d8d5e9"></path><path d="M507 0L516 102L630 0Z" fill="#6263a9" stroke="#6263a9"></path><path d="M666 500L837 538L717 424Z" fill="#b1add4" stroke="#b1add4"></path><path d="M506 600L608 600L620 496Z" fill="#c5c1df" stroke="#c5c1df"></path><path d="M630 0L516 102L633 124Z" fill="#c5c1df" stroke="#c5c1df"></path><path d="M296 0L299 125L391 88Z" fill="#b1add4" stroke="#b1add4"></path><path d="M801 288L760 212L703 288Z" fill="#6263a9" stroke="#6263a9"></path><path d="M93 406L170 464L202 365Z" fill="#8a87be" stroke="#8a87be"></path><path d="M170 464L190 600L294 512Z" fill="#b1add4" stroke="#b1add4"></path><path d="M427 0L296 0L391 88Z" fill="#6263a9" stroke="#6263a9"></path><path d="M608 600L661 600L620 496Z" fill="#8a87be" stroke="#8a87be"></path><path d="M122 292L93 406L202 365Z" fill="#d8d5e9" stroke="#d8d5e9"></path><path d="M806 363L703 288L717 424Z" fill="#6263a9" stroke="#6263a9"></path><path d="M806 363L801 288L703 288Z" fill="#ffffff" stroke="#ffffff"></path><path d="M837 538L806 363L717 424Z" fill="#d8d5e9" stroke="#d8d5e9"></path><path d="M94 600L190 600L170 464Z" fill="#ebeaf4" stroke="#ebeaf4"></path><path d="M723 0L633 124L688 137Z" fill="#ffffff" stroke="#ffffff"></path><path d="M723 0L630 0L633 124Z" fill="#344194" stroke="#344194"></path><path d="M163 193L80 184L122 292Z" fill="#c5c1df" stroke="#c5c1df"></path><path d="M122 292L0 260L93 406Z" fill="#7775b4" stroke="#7775b4"></path><path d="M60 63L80 184L163 193Z" fill="#8a87be" stroke="#8a87be"></path><path d="M60 63L163 193L238 62Z" fill="#b1add4" stroke="#b1add4"></path><path d="M296 0L205 0L238 62Z" fill="#6263a9" stroke="#6263a9"></path><path d="M823 71L688 137L760 212Z" fill="#4d529f" stroke="#4d529f"></path><path d="M823 71L723 0L688 137Z" fill="#7775b4" stroke="#7775b4"></path><path d="M120 461L94 600L170 464Z" fill="#344194" stroke="#344194"></path><path d="M0 519L94 600L120 461Z" fill="#c5c1df" stroke="#c5c1df"></path><path d="M0 427L120 461L93 406Z" fill="#c5c1df" stroke="#c5c1df"></path><path d="M0 182L0 260L80 184Z" fill="#7775b4" stroke="#7775b4"></path><path d="M80 184L0 260L122 292Z" fill="#9e9ac9" stroke="#9e9ac9"></path><path d="M826 600L837 538L666 500Z" fill="#9e9ac9" stroke="#9e9ac9"></path><path d="M900 196L760 212L801 288Z" fill="#7775b4" stroke="#7775b4"></path><path d="M0 260L0 427L93 406Z" fill="#4d529f" stroke="#4d529f"></path><path d="M205 0L120 0L238 62Z" fill="#7775b4" stroke="#7775b4"></path><path d="M900 123L823 71L760 212Z" fill="#7775b4" stroke="#7775b4"></path><path d="M900 297L801 288L806 363Z" fill="#ffffff" stroke="#ffffff"></path><path d="M120 0L60 63L238 62Z" fill="#b1add4" stroke="#b1add4"></path><path d="M900 428L900 297L806 363Z" fill="#9e9ac9" stroke="#9e9ac9"></path><path d="M0 101L0 182L80 184Z" fill="#8a87be" stroke="#8a87be"></path><path d="M837 538L900 428L806 363Z" fill="#8a87be" stroke="#8a87be"></path><path d="M661 600L826 600L666 500Z" fill="#ebeaf4" stroke="#ebeaf4"></path><path d="M837 538L900 529L900 428Z" fill="#ebeaf4" stroke="#ebeaf4"></path><path d="M900 297L900 196L801 288Z" fill="#8a87be" stroke="#8a87be"></path><path d="M0 427L0 519L120 461Z" fill="#ebeaf4" stroke="#ebeaf4"></path><path d="M900 0L810 0L823 71Z" fill="#8a87be" stroke="#8a87be"></path><path d="M823 71L810 0L723 0Z" fill="#9e9ac9" stroke="#9e9ac9"></path><path d="M0 0L0 101L60 63Z" fill="#6263a9" stroke="#6263a9"></path><path d="M60 63L0 101L80 184Z" fill="#ebeaf4" stroke="#ebeaf4"></path><path d="M900 196L900 123L760 212Z" fill="#d8d5e9" stroke="#d8d5e9"></path><path d="M900 600L900 529L837 538Z" fill="#7775b4" stroke="#7775b4"></path><path d="M0 519L0 600L94 600Z" fill="#ebeaf4" stroke="#ebeaf4"></path><path d="M826 600L900 600L837 538Z" fill="#c5c1df" stroke="#c5c1df"></path><path d="M120 0L0 0L60 63Z" fill="#c5c1df" stroke="#c5c1df"></path><path d="M900 123L900 0L823 71Z" fill="#ffffff" stroke="#ffffff"></path></g></svg>