<svg id="visual" viewBox="0 0 900 600" width="900" height="600" xmlns="http://www.w3.org/2000/svg" xmlns:xlink="http://www.w3.org/1999/xlink" version="1.1"><path d="M0 67L8.8 74C17.7 81 35.3 95 53 98C70.7 101 88.3 93 106 92C123.7 91 141.3 97 159 96C176.7 95 194.3 87 212 87C229.7 87 247.3 95 265 94C282.7 93 300.3 83 318 79C335.7 75 353.3 77 371 79C388.7 81 406.3 83 423.8 82C441.3 81 458.7 77 476.2 72C493.7 67 511.3 61 529 67C546.7 73 564.3 91 582 93C599.7 95 617.3 81 635 76C652.7 71 670.3 75 688 74C705.7 73 723.3 67 741 67C758.7 67 776.3 73 794 81C811.7 89 829.3 99 847 100C864.7 101 882.3 93 891.2 89L900 85L900 0L891.2 0C882.3 0 864.7 0 847 0C829.3 0 811.7 0 794 0C776.3 0 758.7 0 741 0C723.3 0 705.7 0 688 0C670.3 0 652.7 0 635 0C617.3 0 599.7 0 582 0C564.3 0 546.7 0 529 0C511.3 0 493.7 0 476.2 0C458.7 0 441.3 0 423.8 0C406.3 0 388.7 0 371 0C353.3 0 335.7 0 318 0C300.3 0 282.7 0 265 0C247.3 0 229.7 0 212 0C194.3 0 176.7 0 159 0C141.3 0 123.7 0 106 0C88.3 0 70.7 0 53 0C35.3 0 17.7 0 8.8 0L0 0Z" fill="#bc53fc"></path><path d="M0 163L8.8 173C17.7 183 35.3 203 53 213C70.7 223 88.3 223 106 228C123.7 233 141.3 243 159 238C176.7 233 194.3 213 212 204C229.7 195 247.3 197 265 196C282.7 195 300.3 191 318 193C335.7 195 353.3 203 371 210C388.7 217 406.3 223 423.8 216C441.3 209 458.7 189 476.2 189C493.7 189 511.3 209 529 219C546.7 229 564.3 229 582 219C599.7 209 617.3 189 635 195C652.7 201 670.3 233 688 240C705.7 247 723.3 229 741 218C758.7 207 776.3 203 794 211C811.7 219 829.3 239 847 247C864.7 255 882.3 251 891.2 249L900 247L900 83L891.2 87C882.3 91 864.7 99 847 98C829.3 97 811.7 87 794 79C776.3 71 758.7 65 741 65C723.3 65 705.7 71 688 72C670.3 73 652.7 69 635 74C617.3 79 599.7 93 582 91C564.3 89 546.7 71 529 65C511.3 59 493.7 65 476.2 70C458.7 75 441.3 79 423.8 80C406.3 81 388.7 79 371 77C353.3 75 335.7 73 318 77C300.3 81 282.7 91 265 92C247.3 93 229.7 85 212 85C194.3 85 176.7 93 159 94C141.3 95 123.7 89 106 90C88.3 91 70.7 99 53 96C35.3 93 17.7 79 8.8 72L0 65Z" fill="#8851da"></path><path d="M0 343L8.8 346C17.7 349 35.3 355 53 360C70.7 365 88.3 369 106 371C123.7 373 141.3 373 159 370C176.7 367 194.3 361 212 357C229.7 353 247.3 351 265 351C282.7 351 300.3 353 318 353C335.7 353 353.3 351 371 350C388.7 349 406.3 349 423.8 349C441.3 349 458.7 349 476.2 347C493.7 345 511.3 341 529 346C546.7 351 564.3 365 582 368C599.7 371 617.3 363 635 363C652.7 363 670.3 371 688 374C705.7 377 723.3 375 741 370C758.7 365 776.3 357 794 357C811.7 357 829.3 365 847 368C864.7 371 882.3 369 891.2 368L900 367L900 245L891.2 247C882.3 249 864.7 253 847 245C829.3 237 811.7 217 794 209C776.3 201 758.7 205 741 216C723.3 227 705.7 245 688 238C670.3 231 652.7 199 635 193C617.3 187 599.7 207 582 217C564.3 227 546.7 227 529 217C511.3 207 493.7 187 476.2 187C458.7 187 441.3 207 423.8 214C406.3 221 388.7 215 371 208C353.3 201 335.7 193 318 191C300.3 189 282.7 193 265 194C247.3 195 229.7 193 212 202C194.3 211 176.7 231 159 236C141.3 241 123.7 231 106 226C88.3 221 70.7 221 53 211C35.3 201 17.7 181 8.8 171L0 161Z" fill="#5b4ab4"></path><path d="M0 397L8.8 400C17.7 403 35.3 409 53 412C70.7 415 88.3 415 106 414C123.7 413 141.3 411 159 410C176.7 409 194.3 409 212 409C229.7 409 247.3 409 265 410C282.7 411 300.3 413 318 413C335.7 413 353.3 411 371 409C388.7 407 406.3 405 423.8 401C441.3 397 458.7 391 476.2 389C493.7 387 511.3 389 529 394C546.7 399 564.3 407 582 408C599.7 409 617.3 403 635 403C652.7 403 670.3 409 688 413C705.7 417 723.3 419 741 417C758.7 415 776.3 409 794 408C811.7 407 829.3 411 847 412C864.7 413 882.3 411 891.2 410L900 409L900 365L891.2 366C882.3 367 864.7 369 847 366C829.3 363 811.7 355 794 355C776.3 355 758.7 363 741 368C723.3 373 705.7 375 688 372C670.3 369 652.7 361 635 361C617.3 361 599.7 369 582 366C564.3 363 546.7 349 529 344C511.3 339 493.7 343 476.2 345C458.7 347 441.3 347 423.8 347C406.3 347 388.7 347 371 348C353.3 349 335.7 351 318 351C300.3 351 282.7 349 265 349C247.3 349 229.7 351 212 355C194.3 359 176.7 365 159 368C141.3 371 123.7 371 106 369C88.3 367 70.7 363 53 358C35.3 353 17.7 347 8.8 344L0 341Z" fill="#3e4194"></path><path d="M0 433L8.8 439C17.7 445 35.3 457 53 459C70.7 461 88.3 453 106 449C123.7 445 141.3 445 159 448C176.7 451 194.3 457 212 458C229.7 459 247.3 455 265 452C282.7 449 300.3 447 318 447C335.7 447 353.3 449 371 449C388.7 449 406.3 447 423.8 444C441.3 441 458.7 437 476.2 436C493.7 435 511.3 437 529 440C546.7 443 564.3 447 582 449C599.7 451 617.3 451 635 452C652.7 453 670.3 455 688 456C705.7 457 723.3 457 741 456C758.7 455 776.3 453 794 454C811.7 455 829.3 459 847 459C864.7 459 882.3 455 891.2 453L900 451L900 407L891.2 408C882.3 409 864.7 411 847 410C829.3 409 811.7 405 794 406C776.3 407 758.7 413 741 415C723.3 417 705.7 415 688 411C670.3 407 652.7 401 635 401C617.3 401 599.7 407 582 406C564.3 405 546.7 397 529 392C511.3 387 493.7 385 476.2 387C458.7 389 441.3 395 423.8 399C406.3 403 388.7 405 371 407C353.3 409 335.7 411 318 411C300.3 411 282.7 409 265 408C247.3 407 229.7 407 212 407C194.3 407 176.7 407 159 408C141.3 409 123.7 411 106 412C88.3 413 70.7 413 53 410C35.3 407 17.7 401 8.8 398L0 395Z" fill="#3e4194"></path><path d="M0 505L8.8 506C17.7 507 35.3 509 53 507C70.7 505 88.3 499 106 499C123.7 499 141.3 505 159 507C176.7 509 194.3 507 212 508C229.7 509 247.3 513 265 513C282.7 513 300.3 509 318 506C335.7 503 353.3 501 371 503C388.7 505 406.3 511 423.8 511C441.3 511 458.7 505 476.2 504C493.7 503 511.3 507 529 508C546.7 509 564.3 507 582 509C599.7 511 617.3 517 635 518C652.7 519 670.3 515 688 514C705.7 513 723.3 515 741 513C758.7 511 776.3 505 794 506C811.7 507 829.3 515 847 519C864.7 523 882.3 523 891.2 523L900 523L900 449L891.2 451C882.3 453 864.7 457 847 457C829.3 457 811.7 453 794 452C776.3 451 758.7 453 741 454C723.3 455 705.7 455 688 454C670.3 453 652.7 451 635 450C617.3 449 599.7 449 582 447C564.3 445 546.7 441 529 438C511.3 435 493.7 433 476.2 434C458.7 435 441.3 439 423.8 442C406.3 445 388.7 447 371 447C353.3 447 335.7 445 318 445C300.3 445 282.7 447 265 450C247.3 453 229.7 457 212 456C194.3 455 176.7 449 159 446C141.3 443 123.7 443 106 447C88.3 451 70.7 459 53 457C35.3 455 17.7 443 8.8 437L0 431Z" fill="#5b4ab4"></path><path d="M0 553L8.8 553C17.7 553 35.3 553 53 551C70.7 549 88.3 545 106 546C123.7 547 141.3 553 159 552C176.7 551 194.3 543 212 542C229.7 541 247.3 547 265 548C282.7 549 300.3 545 318 544C335.7 543 353.3 545 371 548C388.7 551 406.3 555 423.8 553C441.3 551 458.7 543 476.2 541C493.7 539 511.3 543 529 544C546.7 545 564.3 543 582 546C599.7 549 617.3 557 635 560C652.7 563 670.3 561 688 561C705.7 561 723.3 563 741 559C758.7 555 776.3 545 794 543C811.7 541 829.3 547 847 550C864.7 553 882.3 553 891.2 553L900 553L900 521L891.2 521C882.3 521 864.7 521 847 517C829.3 513 811.7 505 794 504C776.3 503 758.7 509 741 511C723.3 513 705.7 511 688 512C670.3 513 652.7 517 635 516C617.3 515 599.7 509 582 507C564.3 505 546.7 507 529 506C511.3 505 493.7 501 476.2 502C458.7 503 441.3 509 423.8 509C406.3 509 388.7 503 371 501C353.3 499 335.7 501 318 504C300.3 507 282.7 511 265 511C247.3 511 229.7 507 212 506C194.3 505 176.7 507 159 505C141.3 503 123.7 497 106 497C88.3 497 70.7 503 53 505C35.3 507 17.7 505 8.8 504L0 503Z" fill="#8851da"></path><path d="M0 601L8.8 601C17.7 601 35.3 601 53 601C70.7 601 88.3 601 106 601C123.7 601 141.3 601 159 601C176.7 601 194.3 601 212 601C229.7 601 247.3 601 265 601C282.7 601 300.3 601 318 601C335.7 601 353.3 601 371 601C388.7 601 406.3 601 423.8 601C441.3 601 458.7 601 476.2 601C493.7 601 511.3 601 529 601C546.7 601 564.3 601 582 601C599.7 601 617.3 601 635 601C652.7 601 670.3 601 688 601C705.7 601 723.3 601 741 601C758.7 601 776.3 601 794 601C811.7 601 829.3 601 847 601C864.7 601 882.3 601 891.2 601L900 601L900 551L891.2 551C882.3 551 864.7 551 847 548C829.3 545 811.7 539 794 541C776.3 543 758.7 553 741 557C723.3 561 705.7 559 688 559C670.3 559 652.7 561 635 558C617.3 555 599.7 547 582 544C564.3 541 546.7 543 529 542C511.3 541 493.7 537 476.2 539C458.7 541 441.3 549 423.8 551C406.3 553 388.7 549 371 546C353.3 543 335.7 541 318 542C300.3 543 282.7 547 265 546C247.3 545 229.7 539 212 540C194.3 541 176.7 549 159 550C141.3 551 123.7 545 106 544C88.3 543 70.7 547 53 549C35.3 551 17.7 551 8.8 551L0 551Z" fill="#bc53fc"></path></svg>