<svg id="visual" viewBox="0 0 900 600" width="900" height="600" xmlns="http://www.w3.org/2000/svg" xmlns:xlink="http://www.w3.org/1999/xlink" version="1.1"><g stroke-width="1" stroke-linejoin="bevel"><path d="M466 354L543 434L583 315Z" fill="#4d529f" stroke="#4d529f"></path><path d="M543 434L564 446L583 315Z" fill="#8a87be" stroke="#8a87be"></path><path d="M564 446L723 391L583 315Z" fill="#4d529f" stroke="#4d529f"></path><path d="M413 168L349 299L466 354Z" fill="#344194" stroke="#344194"></path><path d="M466 354L338 492L543 434Z" fill="#ebeaf4" stroke="#ebeaf4"></path><path d="M812 142L568 159L583 315Z" fill="#d8d5e9" stroke="#d8d5e9"></path><path d="M583 315L413 168L466 354Z" fill="#ffffff" stroke="#ffffff"></path><path d="M568 159L413 168L583 315Z" fill="#7775b4" stroke="#7775b4"></path><path d="M349 299L338 492L466 354Z" fill="#9e9ac9" stroke="#9e9ac9"></path><path d="M543 434L575 600L564 446Z" fill="#c5c1df" stroke="#c5c1df"></path><path d="M564 446L759 445L723 391Z" fill="#ebeaf4" stroke="#ebeaf4"></path><path d="M695 600L759 445L564 446Z" fill="#8a87be" stroke="#8a87be"></path><path d="M407 600L575 600L543 434Z" fill="#d8d5e9" stroke="#d8d5e9"></path><path d="M338 492L407 600L543 434Z" fill="#c5c1df" stroke="#c5c1df"></path><path d="M575 600L695 600L564 446Z" fill="#9e9ac9" stroke="#9e9ac9"></path><path d="M248 131L223 259L349 299Z" fill="#ffffff" stroke="#ffffff"></path><path d="M349 299L194 494L338 492Z" fill="#ebeaf4" stroke="#ebeaf4"></path><path d="M194 494L280 600L338 492Z" fill="#7775b4" stroke="#7775b4"></path><path d="M338 492L280 600L407 600Z" fill="#9e9ac9" stroke="#9e9ac9"></path><path d="M900 274L812 142L723 391Z" fill="#d8d5e9" stroke="#d8d5e9"></path><path d="M723 391L812 142L583 315Z" fill="#d8d5e9" stroke="#d8d5e9"></path><path d="M356 0L248 131L413 168Z" fill="#d8d5e9" stroke="#d8d5e9"></path><path d="M223 259L194 494L349 299Z" fill="#4d529f" stroke="#4d529f"></path><path d="M413 168L248 131L349 299Z" fill="#8a87be" stroke="#8a87be"></path><path d="M424 0L413 168L568 159Z" fill="#ebeaf4" stroke="#ebeaf4"></path><path d="M759 445L900 274L723 391Z" fill="#b1add4" stroke="#b1add4"></path><path d="M900 470L900 274L759 445Z" fill="#ebeaf4" stroke="#ebeaf4"></path><path d="M900 600L900 470L759 445Z" fill="#c5c1df" stroke="#c5c1df"></path><path d="M680 0L424 0L568 159Z" fill="#8a87be" stroke="#8a87be"></path><path d="M812 142L680 0L568 159Z" fill="#ffffff" stroke="#ffffff"></path><path d="M356 0L235 93L248 131Z" fill="#c5c1df" stroke="#c5c1df"></path><path d="M248 131L0 209L223 259Z" fill="#ffffff" stroke="#ffffff"></path><path d="M0 549L81 600L194 494Z" fill="#ffffff" stroke="#ffffff"></path><path d="M424 0L356 0L413 168Z" fill="#b1add4" stroke="#b1add4"></path><path d="M695 600L900 600L759 445Z" fill="#d8d5e9" stroke="#d8d5e9"></path><path d="M900 274L900 101L812 142Z" fill="#7775b4" stroke="#7775b4"></path><path d="M812 142L831 0L680 0Z" fill="#d8d5e9" stroke="#d8d5e9"></path><path d="M900 101L831 0L812 142Z" fill="#ffffff" stroke="#ffffff"></path><path d="M0 209L194 494L223 259Z" fill="#9e9ac9" stroke="#9e9ac9"></path><path d="M194 494L81 600L280 600Z" fill="#b1add4" stroke="#b1add4"></path><path d="M900 101L900 0L831 0Z" fill="#9e9ac9" stroke="#9e9ac9"></path><path d="M356 0L133 0L235 93Z" fill="#344194" stroke="#344194"></path><path d="M0 127L0 209L248 131Z" fill="#9e9ac9" stroke="#9e9ac9"></path><path d="M0 127L248 131L235 93Z" fill="#9e9ac9" stroke="#9e9ac9"></path><path d="M0 209L0 549L194 494Z" fill="#8a87be" stroke="#8a87be"></path><path d="M0 549L0 600L81 600Z" fill="#c5c1df" stroke="#c5c1df"></path><path d="M133 0L0 127L235 93Z" fill="#7775b4" stroke="#7775b4"></path><path d="M133 0L0 0L0 127Z" fill="#c5c1df" stroke="#c5c1df"></path></g></svg>