<svg id="visual" viewBox="0 0 900 600" width="900" height="600" xmlns="http://www.w3.org/2000/svg" xmlns:xlink="http://www.w3.org/1999/xlink" version="1.1"><g fill="#3e4194"><circle r="46" cx="394" cy="442"></circle><circle r="21" cx="798" cy="253"></circle><circle r="23" cx="426" cy="168"></circle><circle r="25" cx="550" cy="442"></circle><circle r="21" cx="897" cy="439"></circle><circle r="23" cx="201" cy="203"></circle><circle r="32" cx="615" cy="516"></circle><circle r="27" cx="93" cy="139"></circle><circle r="20" cx="277" cy="487"></circle><circle r="34" cx="739" cy="597"></circle><circle r="41" cx="170" cy="304"></circle><circle r="44" cx="322" cy="36"></circle><circle r="44" cx="649" cy="29"></circle><circle r="24" cx="49" cy="310"></circle><circle r="43" cx="549" cy="12"></circle><circle r="28" cx="811" cy="368"></circle><circle r="26" cx="886" cy="63"></circle><circle r="37" cx="700" cy="479"></circle><circle r="30" cx="148" cy="559"></circle><circle r="36" cx="255" cy="106"></circle><circle r="26" cx="612" cy="274"></circle><circle r="39" cx="114" cy="454"></circle></g></svg>