<svg id="visual" viewBox="0 0 900 600" width="900" height="600" xmlns="http://www.w3.org/2000/svg" xmlns:xlink="http://www.w3.org/1999/xlink" version="1.1"><g stroke-width="1" stroke-linejoin="bevel"><path d="M445 336.9L445 229.1L374 318.9Z" fill="#dadada" stroke="#dadada"></path><path d="M445 229.1L349 231.1L374 318.9Z" fill="#eaeaea" stroke="#eaeaea"></path><path d="M349 231.1L300 268.1L374 318.9Z" fill="#f1f1f1" stroke="#f1f1f1"></path><path d="M445 336.9L558 282.1L445 229.1Z" fill="#eaeaea" stroke="#eaeaea"></path><path d="M565 175.4L453 159.4L445 229.1Z" fill="#eeeeee" stroke="#eeeeee"></path><path d="M445 229.1L392 152.4L349 231.1Z" fill="#e0e0e0" stroke="#e0e0e0"></path><path d="M453 159.4L392 152.4L445 229.1Z" fill="#f1f1f1" stroke="#f1f1f1"></path><path d="M349 231.1L259 159.4L300 268.1Z" fill="#e4e4e4" stroke="#e4e4e4"></path><path d="M521 355.9L558 282.1L445 336.9Z" fill="#e4e4e4" stroke="#e4e4e4"></path><path d="M209 267.1L263 311.9L300 268.1Z" fill="#e7e7e7" stroke="#e7e7e7"></path><path d="M300 268.1L263 311.9L374 318.9Z" fill="#eaeaea" stroke="#eaeaea"></path><path d="M374 318.9L433 457.6L445 336.9Z" fill="#f0f0f0" stroke="#f0f0f0"></path><path d="M445 336.9L528 433.6L521 355.9Z" fill="#f0f0f0" stroke="#f0f0f0"></path><path d="M347 458.6L433 457.6L374 318.9Z" fill="#dddddd" stroke="#dddddd"></path><path d="M558 282.1L565 175.4L445 229.1Z" fill="#dadada" stroke="#dadada"></path><path d="M433 457.6L528 433.6L445 336.9Z" fill="#f1f1f1" stroke="#f1f1f1"></path><path d="M661 311.9L640 255.1L558 282.1Z" fill="#ebebeb" stroke="#ebebeb"></path><path d="M263 311.9L347 458.6L374 318.9Z" fill="#e0e0e0" stroke="#e0e0e0"></path><path d="M392 152.4L259 159.4L349 231.1Z" fill="#e7e7e7" stroke="#e7e7e7"></path><path d="M259 159.4L209 267.1L300 268.1Z" fill="#eeeeee" stroke="#eeeeee"></path><path d="M263 311.9L246 445.6L347 458.6Z" fill="#e4e4e4" stroke="#e4e4e4"></path><path d="M392 152.4L289 103.7L259 159.4Z" fill="#f0f0f0" stroke="#f0f0f0"></path><path d="M466 66.7L341 79.7L392 152.4Z" fill="#dadada" stroke="#dadada"></path><path d="M466 66.7L392 152.4L453 159.4Z" fill="#ebebeb" stroke="#ebebeb"></path><path d="M565 175.4L561 113.7L453 159.4Z" fill="#eeeeee" stroke="#eeeeee"></path><path d="M661 311.9L558 282.1L521 355.9Z" fill="#dadada" stroke="#dadada"></path><path d="M558 282.1L640 255.1L565 175.4Z" fill="#dddddd" stroke="#dddddd"></path><path d="M565 175.4L619 109.7L561 113.7Z" fill="#f0f0f0" stroke="#f0f0f0"></path><path d="M561 113.7L466 66.7L453 159.4Z" fill="#e7e7e7" stroke="#e7e7e7"></path><path d="M341 79.7L289 103.7L392 152.4Z" fill="#dddddd" stroke="#dddddd"></path><path d="M380 512.3L443 511.3L433 457.6Z" fill="#eeeeee" stroke="#eeeeee"></path><path d="M433 457.6L443 511.3L528 433.6Z" fill="#eaeaea" stroke="#eaeaea"></path><path d="M347 458.6L380 512.3L433 457.6Z" fill="#dddddd" stroke="#dddddd"></path><path d="M267 519.3L380 512.3L347 458.6Z" fill="#eeeeee" stroke="#eeeeee"></path><path d="M210 410.6L246 445.6L263 311.9Z" fill="#eaeaea" stroke="#eaeaea"></path><path d="M618 428.6L661 311.9L521 355.9Z" fill="#f0f0f0" stroke="#f0f0f0"></path><path d="M721 172.4L641 182.4L640 255.1Z" fill="#dddddd" stroke="#dddddd"></path><path d="M640 255.1L641 182.4L565 175.4Z" fill="#e7e7e7" stroke="#e7e7e7"></path><path d="M603 545.3L618 428.6L528 433.6Z" fill="#f0f0f0" stroke="#f0f0f0"></path><path d="M528 433.6L618 428.6L521 355.9Z" fill="#dadada" stroke="#dadada"></path><path d="M176 364.9L210 410.6L263 311.9Z" fill="#dadada" stroke="#dadada"></path><path d="M209 267.1L176 364.9L263 311.9Z" fill="#eaeaea" stroke="#eaeaea"></path><path d="M641 182.4L619 109.7L565 175.4Z" fill="#dadada" stroke="#dadada"></path><path d="M561 113.7L523 0L466 66.7Z" fill="#dddddd" stroke="#dddddd"></path><path d="M443 511.3L523 531.3L528 433.6Z" fill="#e0e0e0" stroke="#e0e0e0"></path><path d="M454 600L523 531.3L443 511.3Z" fill="#ebebeb" stroke="#ebebeb"></path><path d="M259 159.4L159 191.4L209 267.1Z" fill="#ededed" stroke="#ededed"></path><path d="M209 267.1L106 360.9L176 364.9Z" fill="#ededed" stroke="#ededed"></path><path d="M154 65.7L159 191.4L259 159.4Z" fill="#eeeeee" stroke="#eeeeee"></path><path d="M159 511.3L267 519.3L246 445.6Z" fill="#f0f0f0" stroke="#f0f0f0"></path><path d="M246 445.6L267 519.3L347 458.6Z" fill="#f0f0f0" stroke="#f0f0f0"></path><path d="M385 600L454 600L443 511.3Z" fill="#e4e4e4" stroke="#e4e4e4"></path><path d="M159 511.3L246 445.6L210 410.6Z" fill="#dddddd" stroke="#dddddd"></path><path d="M523 0L420 0L466 66.7Z" fill="#dddddd" stroke="#dddddd"></path><path d="M466 66.7L420 0L341 79.7Z" fill="#ebebeb" stroke="#ebebeb"></path><path d="M341 79.7L273 0L289 103.7Z" fill="#e0e0e0" stroke="#e0e0e0"></path><path d="M289 103.7L154 65.7L259 159.4Z" fill="#ebebeb" stroke="#ebebeb"></path><path d="M618 428.6L703 314.9L661 311.9Z" fill="#dddddd" stroke="#dddddd"></path><path d="M661 311.9L730 281.1L640 255.1Z" fill="#ebebeb" stroke="#ebebeb"></path><path d="M641 182.4L721 172.4L619 109.7Z" fill="#e0e0e0" stroke="#e0e0e0"></path><path d="M420 0L364 0L341 79.7Z" fill="#f1f1f1" stroke="#f1f1f1"></path><path d="M619 109.7L523 0L561 113.7Z" fill="#dadada" stroke="#dadada"></path><path d="M828 340.9L730 281.1L703 314.9Z" fill="#ededed" stroke="#ededed"></path><path d="M703 314.9L730 281.1L661 311.9Z" fill="#ebebeb" stroke="#ebebeb"></path><path d="M385 600L443 511.3L380 512.3Z" fill="#ededed" stroke="#ededed"></path><path d="M267 519.3L385 600L380 512.3Z" fill="#f0f0f0" stroke="#f0f0f0"></path><path d="M364 0L273 0L341 79.7Z" fill="#e0e0e0" stroke="#e0e0e0"></path><path d="M523 531.3L603 545.3L528 433.6Z" fill="#dadada" stroke="#dadada"></path><path d="M618 428.6L731 441.6L703 314.9Z" fill="#e4e4e4" stroke="#e4e4e4"></path><path d="M548 600L603 545.3L523 531.3Z" fill="#dddddd" stroke="#dddddd"></path><path d="M730 281.1L721 172.4L640 255.1Z" fill="#ededed" stroke="#ededed"></path><path d="M619 109.7L653 0L523 0Z" fill="#ebebeb" stroke="#ebebeb"></path><path d="M67 259.1L106 360.9L209 267.1Z" fill="#dadada" stroke="#dadada"></path><path d="M176 364.9L73 406.6L210 410.6Z" fill="#e7e7e7" stroke="#e7e7e7"></path><path d="M454 600L548 600L523 531.3Z" fill="#eeeeee" stroke="#eeeeee"></path><path d="M273 0L154 65.7L289 103.7Z" fill="#dadada" stroke="#dadada"></path><path d="M159 191.4L67 259.1L209 267.1Z" fill="#eeeeee" stroke="#eeeeee"></path><path d="M73 406.6L159 511.3L210 410.6Z" fill="#dadada" stroke="#dadada"></path><path d="M267 519.3L263 600L385 600Z" fill="#eaeaea" stroke="#eaeaea"></path><path d="M724 536.3L618 428.6L603 545.3Z" fill="#dddddd" stroke="#dddddd"></path><path d="M724 536.3L731 441.6L618 428.6Z" fill="#e4e4e4" stroke="#e4e4e4"></path><path d="M154 65.7L95 144.4L159 191.4Z" fill="#eeeeee" stroke="#eeeeee"></path><path d="M159 511.3L263 600L267 519.3Z" fill="#eaeaea" stroke="#eaeaea"></path><path d="M95 144.4L67 259.1L159 191.4Z" fill="#e0e0e0" stroke="#e0e0e0"></path><path d="M106 360.9L73 406.6L176 364.9Z" fill="#e0e0e0" stroke="#e0e0e0"></path><path d="M725 76.7L653 0L619 109.7Z" fill="#eeeeee" stroke="#eeeeee"></path><path d="M721 172.4L725 76.7L619 109.7Z" fill="#f1f1f1" stroke="#f1f1f1"></path><path d="M779 140.4L725 76.7L721 172.4Z" fill="#e4e4e4" stroke="#e4e4e4"></path><path d="M0 316.9L73 406.6L106 360.9Z" fill="#dddddd" stroke="#dddddd"></path><path d="M273 0L177 0L154 65.7Z" fill="#e4e4e4" stroke="#e4e4e4"></path><path d="M154 65.7L120 60.7L95 144.4Z" fill="#dadada" stroke="#dadada"></path><path d="M177 0L120 60.7L154 65.7Z" fill="#eeeeee" stroke="#eeeeee"></path><path d="M831 255.1L721 172.4L730 281.1Z" fill="#e4e4e4" stroke="#e4e4e4"></path><path d="M831 255.1L779 140.4L721 172.4Z" fill="#dddddd" stroke="#dddddd"></path><path d="M548 600L651 600L603 545.3Z" fill="#e0e0e0" stroke="#e0e0e0"></path><path d="M651 600L724 536.3L603 545.3Z" fill="#e4e4e4" stroke="#e4e4e4"></path><path d="M828 340.9L831 255.1L730 281.1Z" fill="#f1f1f1" stroke="#f1f1f1"></path><path d="M73 406.6L96 533.3L159 511.3Z" fill="#eeeeee" stroke="#eeeeee"></path><path d="M159 511.3L147 600L263 600Z" fill="#dadada" stroke="#dadada"></path><path d="M828 340.9L703 314.9L731 441.6Z" fill="#dadada" stroke="#dadada"></path><path d="M832 418.6L828 340.9L731 441.6Z" fill="#eaeaea" stroke="#eaeaea"></path><path d="M900 166.4L797 108.7L779 140.4Z" fill="#e0e0e0" stroke="#e0e0e0"></path><path d="M779 140.4L797 108.7L725 76.7Z" fill="#ededed" stroke="#ededed"></path><path d="M725 76.7L747 0L653 0Z" fill="#e4e4e4" stroke="#e4e4e4"></path><path d="M651 600L693 600L724 536.3Z" fill="#eeeeee" stroke="#eeeeee"></path><path d="M815 495.3L832 418.6L731 441.6Z" fill="#eeeeee" stroke="#eeeeee"></path><path d="M96 533.3L147 600L159 511.3Z" fill="#eaeaea" stroke="#eaeaea"></path><path d="M67 259.1L0 316.9L106 360.9Z" fill="#f1f1f1" stroke="#f1f1f1"></path><path d="M73 406.6L0 482.3L96 533.3Z" fill="#dadada" stroke="#dadada"></path><path d="M0 186.4L0 285.1L67 259.1Z" fill="#ededed" stroke="#ededed"></path><path d="M0 186.4L67 259.1L95 144.4Z" fill="#f1f1f1" stroke="#f1f1f1"></path><path d="M0 285.1L0 316.9L67 259.1Z" fill="#eeeeee" stroke="#eeeeee"></path><path d="M177 0L99 0L120 60.7Z" fill="#eeeeee" stroke="#eeeeee"></path><path d="M0 101.7L0 186.4L95 144.4Z" fill="#ededed" stroke="#ededed"></path><path d="M797 108.7L747 0L725 76.7Z" fill="#ededed" stroke="#ededed"></path><path d="M0 101.7L95 144.4L120 60.7Z" fill="#ededed" stroke="#ededed"></path><path d="M815 495.3L731 441.6L724 536.3Z" fill="#ebebeb" stroke="#ebebeb"></path><path d="M900 332.9L900 241.1L831 255.1Z" fill="#e7e7e7" stroke="#e7e7e7"></path><path d="M0 316.9L0 406.6L73 406.6Z" fill="#dadada" stroke="#dadada"></path><path d="M795 600L815 495.3L724 536.3Z" fill="#eaeaea" stroke="#eaeaea"></path><path d="M99 0L0 101.7L120 60.7Z" fill="#f1f1f1" stroke="#f1f1f1"></path><path d="M0 406.6L0 482.3L73 406.6Z" fill="#e4e4e4" stroke="#e4e4e4"></path><path d="M96 533.3L63 600L147 600Z" fill="#eaeaea" stroke="#eaeaea"></path><path d="M0 600L63 600L96 533.3Z" fill="#eeeeee" stroke="#eeeeee"></path><path d="M831 255.1L900 166.4L779 140.4Z" fill="#ebebeb" stroke="#ebebeb"></path><path d="M797 108.7L835 0L747 0Z" fill="#eeeeee" stroke="#eeeeee"></path><path d="M900 332.9L831 255.1L828 340.9Z" fill="#e7e7e7" stroke="#e7e7e7"></path><path d="M900 332.9L828 340.9L832 418.6Z" fill="#f1f1f1" stroke="#f1f1f1"></path><path d="M900 452.6L900 332.9L832 418.6Z" fill="#f1f1f1" stroke="#f1f1f1"></path><path d="M693 600L795 600L724 536.3Z" fill="#eaeaea" stroke="#eaeaea"></path><path d="M815 495.3L900 452.6L832 418.6Z" fill="#dadada" stroke="#dadada"></path><path d="M900 241.1L900 166.4L831 255.1Z" fill="#eaeaea" stroke="#eaeaea"></path><path d="M900 76.7L835 0L797 108.7Z" fill="#ebebeb" stroke="#ebebeb"></path><path d="M99 0L0 0L0 101.7Z" fill="#e4e4e4" stroke="#e4e4e4"></path><path d="M900 520.3L900 452.6L815 495.3Z" fill="#ededed" stroke="#ededed"></path><path d="M900 166.4L900 76.7L797 108.7Z" fill="#f0f0f0" stroke="#f0f0f0"></path><path d="M0 482.3L0 600L96 533.3Z" fill="#f0f0f0" stroke="#f0f0f0"></path><path d="M795 600L900 520.3L815 495.3Z" fill="#e0e0e0" stroke="#e0e0e0"></path><path d="M900 76.7L900 0L835 0Z" fill="#f0f0f0" stroke="#f0f0f0"></path><path d="M795 600L900 600L900 520.3Z" fill="#ebebeb" stroke="#ebebeb"></path></g></svg>