<svg id="visual" viewBox="0 0 900 600" width="900" height="600" xmlns="http://www.w3.org/2000/svg" xmlns:xlink="http://www.w3.org/1999/xlink" version="1.1"><g stroke-width="1" stroke-linejoin="bevel"><path d="M490 273L425 232L383 289Z" fill="#e3e3e3" stroke="#e3e3e3"></path><path d="M383 289L472 395L490 273Z" fill="#f2f2f2" stroke="#f2f2f2"></path><path d="M425 232L301 229L383 289Z" fill="#e0e0e0" stroke="#e0e0e0"></path><path d="M383 289L400 428L472 395Z" fill="#e3e3e3" stroke="#e3e3e3"></path><path d="M278 335L400 428L383 289Z" fill="#f4f4f4" stroke="#f4f4f4"></path><path d="M626 228L522 162L490 273Z" fill="#e6e6e6" stroke="#e6e6e6"></path><path d="M490 273L522 162L425 232Z" fill="#f0f0f0" stroke="#f0f0f0"></path><path d="M425 232L378 96L301 229Z" fill="#e6e6e6" stroke="#e6e6e6"></path><path d="M301 229L278 335L383 289Z" fill="#f0f0f0" stroke="#f0f0f0"></path><path d="M472 395L604 291L490 273Z" fill="#e0e0e0" stroke="#e0e0e0"></path><path d="M522 162L499 129L425 232Z" fill="#e3e3e3" stroke="#e3e3e3"></path><path d="M604 291L626 228L490 273Z" fill="#f1f1f1" stroke="#f1f1f1"></path><path d="M522 162L595 103L499 129Z" fill="#eaeaea" stroke="#eaeaea"></path><path d="M499 129L378 96L425 232Z" fill="#f2f2f2" stroke="#f2f2f2"></path><path d="M495 505L611 407L472 395Z" fill="#ededed" stroke="#ededed"></path><path d="M472 395L611 407L604 291Z" fill="#e3e3e3" stroke="#e3e3e3"></path><path d="M604 291L692 299L626 228Z" fill="#e3e3e3" stroke="#e3e3e3"></path><path d="M278 335L283 438L400 428Z" fill="#f1f1f1" stroke="#f1f1f1"></path><path d="M374 532L495 505L400 428Z" fill="#f0f0f0" stroke="#f0f0f0"></path><path d="M400 428L495 505L472 395Z" fill="#f4f4f4" stroke="#f4f4f4"></path><path d="M283 438L298 479L400 428Z" fill="#e3e3e3" stroke="#e3e3e3"></path><path d="M626 228L595 103L522 162Z" fill="#f3f3f3" stroke="#f3f3f3"></path><path d="M531 0L374 0L378 96Z" fill="#f3f3f3" stroke="#f3f3f3"></path><path d="M301 229L193 335L278 335Z" fill="#e6e6e6" stroke="#e6e6e6"></path><path d="M278 335L193 335L283 438Z" fill="#ededed" stroke="#ededed"></path><path d="M283 438L165 508L298 479Z" fill="#f1f1f1" stroke="#f1f1f1"></path><path d="M160 165L193 335L301 229Z" fill="#f2f2f2" stroke="#f2f2f2"></path><path d="M298 479L374 532L400 428Z" fill="#eaeaea" stroke="#eaeaea"></path><path d="M611 407L692 299L604 291Z" fill="#e6e6e6" stroke="#e6e6e6"></path><path d="M626 228L667 165L595 103Z" fill="#f4f4f4" stroke="#f4f4f4"></path><path d="M692 299L667 165L626 228Z" fill="#f5f5f5" stroke="#f5f5f5"></path><path d="M309 0L273 82L378 96Z" fill="#f3f3f3" stroke="#f3f3f3"></path><path d="M378 96L273 82L301 229Z" fill="#f5f5f5" stroke="#f5f5f5"></path><path d="M78 309L169 360L193 335Z" fill="#ededed" stroke="#ededed"></path><path d="M193 335L169 360L283 438Z" fill="#eaeaea" stroke="#eaeaea"></path><path d="M495 505L578 534L611 407Z" fill="#e3e3e3" stroke="#e3e3e3"></path><path d="M611 407L739 431L692 299Z" fill="#ededed" stroke="#ededed"></path><path d="M497 600L578 534L495 505Z" fill="#ededed" stroke="#ededed"></path><path d="M531 0L378 96L499 129Z" fill="#f4f4f4" stroke="#f4f4f4"></path><path d="M601 0L531 0L595 103Z" fill="#f3f3f3" stroke="#f3f3f3"></path><path d="M595 103L531 0L499 129Z" fill="#f1f1f1" stroke="#f1f1f1"></path><path d="M177 107L160 165L273 82Z" fill="#f0f0f0" stroke="#f0f0f0"></path><path d="M273 82L160 165L301 229Z" fill="#f2f2f2" stroke="#f2f2f2"></path><path d="M374 0L309 0L378 96Z" fill="#ededed" stroke="#ededed"></path><path d="M183 0L177 107L273 82Z" fill="#f3f3f3" stroke="#f3f3f3"></path><path d="M261 600L420 600L374 532Z" fill="#eaeaea" stroke="#eaeaea"></path><path d="M374 532L420 600L495 505Z" fill="#f5f5f5" stroke="#f5f5f5"></path><path d="M261 600L374 532L298 479Z" fill="#f5f5f5" stroke="#f5f5f5"></path><path d="M420 600L497 600L495 505Z" fill="#f4f4f4" stroke="#f4f4f4"></path><path d="M663 0L601 0L595 103Z" fill="#f2f2f2" stroke="#f2f2f2"></path><path d="M738 600L718 464L578 534Z" fill="#ededed" stroke="#ededed"></path><path d="M578 534L718 464L611 407Z" fill="#eaeaea" stroke="#eaeaea"></path><path d="M718 464L739 431L611 407Z" fill="#f0f0f0" stroke="#f0f0f0"></path><path d="M831 128L708 73L667 165Z" fill="#f5f5f5" stroke="#f5f5f5"></path><path d="M497 600L572 600L578 534Z" fill="#f2f2f2" stroke="#f2f2f2"></path><path d="M828 183L667 165L692 299Z" fill="#f4f4f4" stroke="#f4f4f4"></path><path d="M667 165L708 73L595 103Z" fill="#f4f4f4" stroke="#f4f4f4"></path><path d="M63 391L165 508L169 360Z" fill="#f0f0f0" stroke="#f0f0f0"></path><path d="M169 360L165 508L283 438Z" fill="#f0f0f0" stroke="#f0f0f0"></path><path d="M177 107L121 130L160 165Z" fill="#f5f5f5" stroke="#f5f5f5"></path><path d="M160 165L78 309L193 335Z" fill="#eaeaea" stroke="#eaeaea"></path><path d="M78 0L121 130L177 107Z" fill="#e3e3e3" stroke="#e3e3e3"></path><path d="M830 491L772 396L739 431Z" fill="#f1f1f1" stroke="#f1f1f1"></path><path d="M739 431L772 396L692 299Z" fill="#f4f4f4" stroke="#f4f4f4"></path><path d="M68 168L78 309L160 165Z" fill="#e0e0e0" stroke="#e0e0e0"></path><path d="M165 508L261 600L298 479Z" fill="#f0f0f0" stroke="#f0f0f0"></path><path d="M708 73L663 0L595 103Z" fill="#f4f4f4" stroke="#f4f4f4"></path><path d="M309 0L183 0L273 82Z" fill="#eaeaea" stroke="#eaeaea"></path><path d="M0 88L68 168L121 130Z" fill="#e0e0e0" stroke="#e0e0e0"></path><path d="M121 130L68 168L160 165Z" fill="#e3e3e3" stroke="#e3e3e3"></path><path d="M0 274L63 391L78 309Z" fill="#f0f0f0" stroke="#f0f0f0"></path><path d="M78 309L63 391L169 360Z" fill="#e6e6e6" stroke="#e6e6e6"></path><path d="M900 432L824 337L772 396Z" fill="#ededed" stroke="#ededed"></path><path d="M772 396L824 337L692 299Z" fill="#e3e3e3" stroke="#e3e3e3"></path><path d="M824 337L828 183L692 299Z" fill="#ededed" stroke="#ededed"></path><path d="M708 73L787 0L663 0Z" fill="#f1f1f1" stroke="#f1f1f1"></path><path d="M69 600L162 600L165 508Z" fill="#e0e0e0" stroke="#e0e0e0"></path><path d="M165 508L162 600L261 600Z" fill="#e3e3e3" stroke="#e3e3e3"></path><path d="M63 391L66 481L165 508Z" fill="#f2f2f2" stroke="#f2f2f2"></path><path d="M900 175L831 128L828 183Z" fill="#f1f1f1" stroke="#f1f1f1"></path><path d="M828 183L831 128L667 165Z" fill="#e0e0e0" stroke="#e0e0e0"></path><path d="M572 600L738 600L578 534Z" fill="#eaeaea" stroke="#eaeaea"></path><path d="M718 464L830 491L739 431Z" fill="#eaeaea" stroke="#eaeaea"></path><path d="M0 235L0 274L78 309Z" fill="#ededed" stroke="#ededed"></path><path d="M63 391L0 430L66 481Z" fill="#f2f2f2" stroke="#f2f2f2"></path><path d="M0 88L0 235L68 168Z" fill="#f1f1f1" stroke="#f1f1f1"></path><path d="M68 168L0 235L78 309Z" fill="#e0e0e0" stroke="#e0e0e0"></path><path d="M782 600L830 491L718 464Z" fill="#e3e3e3" stroke="#e3e3e3"></path><path d="M824 337L900 288L828 183Z" fill="#f4f4f4" stroke="#f4f4f4"></path><path d="M831 128L787 0L708 73Z" fill="#e3e3e3" stroke="#e3e3e3"></path><path d="M183 0L78 0L177 107Z" fill="#e0e0e0" stroke="#e0e0e0"></path><path d="M0 274L0 430L63 391Z" fill="#e6e6e6" stroke="#e6e6e6"></path><path d="M66 481L69 600L165 508Z" fill="#f5f5f5" stroke="#f5f5f5"></path><path d="M900 432L900 288L824 337Z" fill="#f4f4f4" stroke="#f4f4f4"></path><path d="M831 128L900 0L787 0Z" fill="#f3f3f3" stroke="#f3f3f3"></path><path d="M738 600L782 600L718 464Z" fill="#e3e3e3" stroke="#e3e3e3"></path><path d="M900 288L900 175L828 183Z" fill="#e6e6e6" stroke="#e6e6e6"></path><path d="M78 0L0 88L121 130Z" fill="#f5f5f5" stroke="#f5f5f5"></path><path d="M0 430L0 487L66 481Z" fill="#eaeaea" stroke="#eaeaea"></path><path d="M0 487L69 600L66 481Z" fill="#f1f1f1" stroke="#f1f1f1"></path><path d="M900 497L900 432L830 491Z" fill="#e6e6e6" stroke="#e6e6e6"></path><path d="M830 491L900 432L772 396Z" fill="#f1f1f1" stroke="#f1f1f1"></path><path d="M900 175L900 137L831 128Z" fill="#f4f4f4" stroke="#f4f4f4"></path><path d="M900 600L900 497L830 491Z" fill="#f2f2f2" stroke="#f2f2f2"></path><path d="M78 0L0 0L0 88Z" fill="#f1f1f1" stroke="#f1f1f1"></path><path d="M0 487L0 600L69 600Z" fill="#e6e6e6" stroke="#e6e6e6"></path><path d="M900 137L900 0L831 128Z" fill="#f5f5f5" stroke="#f5f5f5"></path><path d="M782 600L900 600L830 491Z" fill="#f0f0f0" stroke="#f0f0f0"></path></g></svg>