<svg id="visual" viewBox="0 0 900 600" width="900" height="600" xmlns="http://www.w3.org/2000/svg" xmlns:xlink="http://www.w3.org/1999/xlink" version="1.1"><rect x="0" y="0" width="900" height="600" fill="#fff"></rect><path d="M0 181L21.5 170.2C43 159.3 86 137.7 128.8 143.3C171.7 149 214.3 182 257.2 188.8C300 195.7 343 176.3 385.8 154.5C428.7 132.7 471.3 108.3 514.2 99.2C557 90 600 96 642.8 110.2C685.7 124.3 728.3 146.7 771.2 147.3C814 148 857 127 878.5 116.5L900 106L900 0L878.5 0C857 0 814 0 771.2 0C728.3 0 685.7 0 642.8 0C600 0 557 0 514.2 0C471.3 0 428.7 0 385.8 0C343 0 300 0 257.2 0C214.3 0 171.7 0 128.8 0C86 0 43 0 21.5 0L0 0Z" fill="#f0f0f0" stroke-linecap="round" stroke-linejoin="miter"></path></svg>