<svg id="visual" viewBox="0 0 900 600" width="900" height="600" xmlns="http://www.w3.org/2000/svg" xmlns:xlink="http://www.w3.org/1999/xlink" version="1.1"><path d="M0 89L900 119L900 0L0 0Z" fill="#6e6eb1"></path><path d="M0 77L900 68L900 0L0 0Z" fill="#6666ac"></path><path d="M0 101L900 88L900 0L0 0Z" fill="#5d5da7"></path><path d="M0 71L900 61L900 0L0 0Z" fill="#5455a1"></path><path d="M0 64L900 58L900 0L0 0Z" fill="#4c4d9c"></path><path d="M0 67L900 46L900 0L0 0Z" fill="#434597"></path><path d="M0 59L900 55L900 0L0 0Z" fill="#3c4090"></path><path d="M0 45L900 41L900 0L0 0Z" fill="#393d89"></path><path d="M0 37L900 36L900 0L0 0Z" fill="#353a82"></path><path d="M0 35L900 30L900 0L0 0Z" fill="#32377b"></path><path d="M0 25L900 25L900 0L0 0Z" fill="#2f3474"></path><path d="M0 9L900 9L900 0L0 0Z" fill="#2c316d"></path></svg>