<svg id="visual" viewBox="0 0 900 600" width="900" height="600" xmlns="http://www.w3.org/2000/svg" xmlns:xlink="http://www.w3.org/1999/xlink" version="1.1"><path d="M0 61L900 39L900 0L0 0Z" fill="#6e6eb1"></path><path d="M0 78L900 86L900 0L0 0Z" fill="#6666ac"></path><path d="M0 56L900 80L900 0L0 0Z" fill="#5d5da7"></path><path d="M0 33L900 55L900 0L0 0Z" fill="#5455a1"></path><path d="M0 22L900 19L900 0L0 0Z" fill="#4c4d9c"></path><path d="M0 51L900 7L900 0L0 0Z" fill="#434597"></path><path d="M0 26L900 59L900 0L0 0Z" fill="#3c4090"></path><path d="M0 25L900 6L900 0L0 0Z" fill="#393d89"></path><path d="M0 24L900 5L900 0L0 0Z" fill="#353a82"></path><path d="M0 2L900 7L900 0L0 0Z" fill="#32377b"></path><path d="M0 16L900 24L900 0L0 0Z" fill="#2f3474"></path><path d="M0 7L900 17L900 0L0 0Z" fill="#2c316d"></path></svg>