<svg id="visual" viewBox="0 0 900 600" width="900" height="600" xmlns="http://www.w3.org/2000/svg" xmlns:xlink="http://www.w3.org/1999/xlink" version="1.1"><g stroke-width="1" stroke-linejoin="bevel"><path d="M499 283L515 387L597 294Z" fill="#1d4e6b" stroke="#1d4e6b"></path><path d="M515 387L580 393L597 294Z" fill="#277297" stroke="#277297"></path><path d="M499 283L436 415L515 387Z" fill="#1d4e6b" stroke="#1d4e6b"></path><path d="M515 387L483 482L580 393Z" fill="#0c2435" stroke="#0c2435"></path><path d="M580 393L673 268L597 294Z" fill="#112e42" stroke="#112e42"></path><path d="M597 294L534 176L499 283Z" fill="#112e42" stroke="#112e42"></path><path d="M579 168L534 176L597 294Z" fill="#00101c" stroke="#00101c"></path><path d="M499 283L378 289L436 415Z" fill="#277297" stroke="#277297"></path><path d="M436 415L483 482L515 387Z" fill="#277297" stroke="#277297"></path><path d="M673 268L669 223L597 294Z" fill="#15384f" stroke="#15384f"></path><path d="M669 223L579 168L597 294Z" fill="#277297" stroke="#277297"></path><path d="M434 178L378 289L499 283Z" fill="#15384f" stroke="#15384f"></path><path d="M508 98L434 178L534 176Z" fill="#297ea6" stroke="#297ea6"></path><path d="M534 176L434 178L499 283Z" fill="#19435d" stroke="#19435d"></path><path d="M483 482L604 512L580 393Z" fill="#15384f" stroke="#15384f"></path><path d="M580 393L731 430L673 268Z" fill="#205a7a" stroke="#205a7a"></path><path d="M436 415L414 488L483 482Z" fill="#277297" stroke="#277297"></path><path d="M483 482L508 600L604 512Z" fill="#277297" stroke="#277297"></path><path d="M339 406L414 488L436 415Z" fill="#112e42" stroke="#112e42"></path><path d="M604 512L731 430L580 393Z" fill="#15384f" stroke="#15384f"></path><path d="M673 268L782 272L669 223Z" fill="#246688" stroke="#246688"></path><path d="M378 289L339 406L436 415Z" fill="#205a7a" stroke="#205a7a"></path><path d="M731 430L766 365L673 268Z" fill="#246688" stroke="#246688"></path><path d="M579 168L508 98L534 176Z" fill="#15384f" stroke="#15384f"></path><path d="M579 81L508 98L579 168Z" fill="#205a7a" stroke="#205a7a"></path><path d="M838 186L670 122L669 223Z" fill="#00101c" stroke="#00101c"></path><path d="M669 223L670 122L579 168Z" fill="#246688" stroke="#246688"></path><path d="M766 365L782 272L673 268Z" fill="#19435d" stroke="#19435d"></path><path d="M604 512L724 500L731 430Z" fill="#246688" stroke="#246688"></path><path d="M731 430L785 481L766 365Z" fill="#1d4e6b" stroke="#1d4e6b"></path><path d="M670 122L579 81L579 168Z" fill="#00101c" stroke="#00101c"></path><path d="M479 0L400 115L508 98Z" fill="#112e42" stroke="#112e42"></path><path d="M508 98L400 115L434 178Z" fill="#246688" stroke="#246688"></path><path d="M270 210L271 284L378 289Z" fill="#00101c" stroke="#00101c"></path><path d="M378 289L271 284L339 406Z" fill="#15384f" stroke="#15384f"></path><path d="M422 600L483 482L414 488Z" fill="#246688" stroke="#246688"></path><path d="M422 600L508 600L483 482Z" fill="#205a7a" stroke="#205a7a"></path><path d="M604 512L690 600L724 500Z" fill="#19435d" stroke="#19435d"></path><path d="M508 600L588 600L604 512Z" fill="#277297" stroke="#277297"></path><path d="M270 210L378 289L434 178Z" fill="#297ea6" stroke="#297ea6"></path><path d="M761 600L785 481L724 500Z" fill="#1d4e6b" stroke="#1d4e6b"></path><path d="M724 500L785 481L731 430Z" fill="#0c2435" stroke="#0c2435"></path><path d="M900 262L838 186L782 272Z" fill="#297ea6" stroke="#297ea6"></path><path d="M304 509L422 600L414 488Z" fill="#297ea6" stroke="#297ea6"></path><path d="M304 509L414 488L339 406Z" fill="#1d4e6b" stroke="#1d4e6b"></path><path d="M400 115L270 210L434 178Z" fill="#15384f" stroke="#15384f"></path><path d="M234 486L304 509L339 406Z" fill="#205a7a" stroke="#205a7a"></path><path d="M588 600L690 600L604 512Z" fill="#19435d" stroke="#19435d"></path><path d="M782 272L838 186L669 223Z" fill="#0c2435" stroke="#0c2435"></path><path d="M700 0L572 0L579 81Z" fill="#297ea6" stroke="#297ea6"></path><path d="M900 396L782 272L766 365Z" fill="#205a7a" stroke="#205a7a"></path><path d="M700 0L579 81L670 122Z" fill="#205a7a" stroke="#205a7a"></path><path d="M579 81L572 0L508 98Z" fill="#00101c" stroke="#00101c"></path><path d="M572 0L479 0L508 98Z" fill="#15384f" stroke="#15384f"></path><path d="M400 115L279 60L270 210Z" fill="#15384f" stroke="#15384f"></path><path d="M195 403L234 486L339 406Z" fill="#246688" stroke="#246688"></path><path d="M304 509L307 600L422 600Z" fill="#112e42" stroke="#112e42"></path><path d="M195 403L339 406L271 284Z" fill="#1d4e6b" stroke="#1d4e6b"></path><path d="M690 600L761 600L724 500Z" fill="#112e42" stroke="#112e42"></path><path d="M178 261L195 403L271 284Z" fill="#246688" stroke="#246688"></path><path d="M233 600L307 600L304 509Z" fill="#246688" stroke="#246688"></path><path d="M900 461L900 396L785 481Z" fill="#0c2435" stroke="#0c2435"></path><path d="M785 481L900 396L766 365Z" fill="#15384f" stroke="#15384f"></path><path d="M900 396L900 262L782 272Z" fill="#1d4e6b" stroke="#1d4e6b"></path><path d="M900 137L830 104L838 186Z" fill="#19435d" stroke="#19435d"></path><path d="M838 186L830 104L670 122Z" fill="#00101c" stroke="#00101c"></path><path d="M830 104L700 0L670 122Z" fill="#112e42" stroke="#112e42"></path><path d="M479 0L384 0L400 115Z" fill="#246688" stroke="#246688"></path><path d="M178 192L178 261L270 210Z" fill="#205a7a" stroke="#205a7a"></path><path d="M270 210L178 261L271 284Z" fill="#297ea6" stroke="#297ea6"></path><path d="M331 0L279 60L400 115Z" fill="#297ea6" stroke="#297ea6"></path><path d="M900 600L900 461L785 481Z" fill="#205a7a" stroke="#205a7a"></path><path d="M900 262L900 195L838 186Z" fill="#1d4e6b" stroke="#1d4e6b"></path><path d="M193 98L178 192L270 210Z" fill="#081a28" stroke="#081a28"></path><path d="M384 0L331 0L400 115Z" fill="#1d4e6b" stroke="#1d4e6b"></path><path d="M900 195L900 137L838 186Z" fill="#19435d" stroke="#19435d"></path><path d="M830 104L824 0L700 0Z" fill="#19435d" stroke="#19435d"></path><path d="M234 486L233 600L304 509Z" fill="#081a28" stroke="#081a28"></path><path d="M109 525L233 600L234 486Z" fill="#19435d" stroke="#19435d"></path><path d="M279 60L193 98L270 210Z" fill="#1d4e6b" stroke="#1d4e6b"></path><path d="M208 0L193 98L279 60Z" fill="#19435d" stroke="#19435d"></path><path d="M900 0L824 0L830 104Z" fill="#19435d" stroke="#19435d"></path><path d="M761 600L900 600L785 481Z" fill="#19435d" stroke="#19435d"></path><path d="M178 261L92 406L195 403Z" fill="#15384f" stroke="#15384f"></path><path d="M195 403L109 525L234 486Z" fill="#0c2435" stroke="#0c2435"></path><path d="M62 282L92 406L178 261Z" fill="#19435d" stroke="#19435d"></path><path d="M62 282L178 261L74 212Z" fill="#246688" stroke="#246688"></path><path d="M331 0L208 0L279 60Z" fill="#205a7a" stroke="#205a7a"></path><path d="M74 212L178 261L178 192Z" fill="#205a7a" stroke="#205a7a"></path><path d="M92 406L109 525L195 403Z" fill="#0c2435" stroke="#0c2435"></path><path d="M74 212L178 192L74 81Z" fill="#081a28" stroke="#081a28"></path><path d="M0 600L96 600L109 525Z" fill="#15384f" stroke="#15384f"></path><path d="M74 81L178 192L193 98Z" fill="#15384f" stroke="#15384f"></path><path d="M900 137L900 0L830 104Z" fill="#0c2435" stroke="#0c2435"></path><path d="M0 475L109 525L92 406Z" fill="#1d4e6b" stroke="#1d4e6b"></path><path d="M109 525L96 600L233 600Z" fill="#112e42" stroke="#112e42"></path><path d="M0 211L0 324L62 282Z" fill="#19435d" stroke="#19435d"></path><path d="M90 0L74 81L193 98Z" fill="#277297" stroke="#277297"></path><path d="M0 211L62 282L74 212Z" fill="#246688" stroke="#246688"></path><path d="M62 282L0 324L92 406Z" fill="#297ea6" stroke="#297ea6"></path><path d="M0 324L0 405L92 406Z" fill="#112e42" stroke="#112e42"></path><path d="M0 107L0 211L74 212Z" fill="#205a7a" stroke="#205a7a"></path><path d="M208 0L90 0L193 98Z" fill="#277297" stroke="#277297"></path><path d="M74 81L0 107L74 212Z" fill="#297ea6" stroke="#297ea6"></path><path d="M0 405L0 475L92 406Z" fill="#297ea6" stroke="#297ea6"></path><path d="M0 0L0 107L74 81Z" fill="#15384f" stroke="#15384f"></path><path d="M0 475L0 600L109 525Z" fill="#00101c" stroke="#00101c"></path><path d="M90 0L0 0L74 81Z" fill="#205a7a" stroke="#205a7a"></path></g></svg>