<svg width="175px" height="36px" viewBox="0 0 175 36" version="1.1" xmlns="http://www.w3.org/2000/svg" xmlns:xlink="http://www.w3.org/1999/xlink">
    <g id="Symbols" stroke="none" stroke-width="1" fill="none" fill-rule="evenodd">
        <g id="Desktop/-Navigation/-color" transform="translate(-128.000000, -65.000000)">
            <g id="Navigation">
                <g id="Nav" transform="translate(128.000000, 60.000000)">
                    <g id="Logo">
                        <g transform="translate(0.000000, 5.000000)">
                            <path d="M83.7094008,22.9044988 C83.051101,23.2101971 82.2300662,23.3524692 81.5100252,23.2852736 C79.9440075,23.1396833 79.0865822,21.8418137 79.0988487,19.6363894 C79.1712208,17.9079706 79.8430137,16.1812109 81.4940788,15.0015557 C82.0628335,14.5950641 82.7681547,14.3076165 83.4518053,14.1611966 C84.7737204,13.877482 86.0306233,14.6688963 86.4758957,15.9601292 C87.1685416,17.971433 86.4959309,21.6099476 83.7094008,22.9044988 M92.8180627,14.7858663 C92.3989587,12.1909567 91.09299,10.1414925 88.5513802,9.25799545 C85.5694046,8.22102711 82.8335758,8.7519549 80.5176688,11.0320409 C80.4395724,11.1091913 80.3488006,11.1734834 80.2056919,11.2925273 C80.3496184,10.5670643 80.4767806,9.92538828 80.6129383,9.24140396 L74.9891768,9.24140396 C73.3278897,17.9710183 71.6674203,26.6981438 70,35.4605263 L76.2109159,35.4605263 C76.7653597,32.5151214 77.3153059,29.5929446 77.8832428,26.5770259 C78.8118136,27.5140305 79.8156186,28.1038581 80.9891096,28.3631002 C83.8884911,29.0035318 86.4877533,28.2453006 88.7235194,26.3808315 C92.3363998,23.3674015 93.5626366,19.3949832 92.8180627,14.7858663" id="Fill-1" fill="#fff"/>
                            <path d="M59.8468619,21.7160895 C59.8174504,21.6645138 59.7880389,21.6129381 59.7586274,21.5613624 C60.0421217,21.2207132 60.2794562,20.8197536 60.6180971,20.5523086 C61.3305093,19.989967 62.0833623,19.4779533 62.8423427,18.9809132 C64.7406107,17.7376891 66.6887149,16.568501 68.545725,15.2649665 C69.9080499,14.3087363 71.0081222,13.0517863 71.7965141,11.5448606 C74.0052369,7.32230734 72.3108071,2.76201641 67.9174625,1.08622179 C66.2405978,0.446516625 64.5167564,0.314665821 62.7635035,0.611642081 C59.4089572,1.17939082 56.8370838,3.02031089 54.7472325,5.756735 C56.224344,6.93216205 57.6601977,8.07431445 59.0707248,9.19650206 C59.7042978,8.58383254 60.2488192,7.98156136 60.8693204,7.47537073 C61.7263392,6.77660306 62.7234712,6.40392697 63.8439681,6.48586579 C65.62459,6.61688473 66.4897787,8.16914721 65.6249985,9.76009146 C65.3435467,10.2779282 64.9395469,10.7724727 64.482443,11.1359983 C63.5625162,11.8680406 62.5715117,12.5081617 61.6033827,13.1757344 C59.9722693,14.3012495 58.2770224,15.3406664 56.7153529,16.5581027 C54.5507473,18.2455434 52.9514963,20.4021567 52.1483986,23.1011469 C51.7558367,24.4204868 51.5193191,25.7643668 51.5920309,27.1710526 L69.4076457,27.1710526 C69.7491461,25.3634072 70.084519,23.5886205 70.4386826,21.7160895 L59.8468619,21.7160895 Z" id="Fill-3" fill="#F15863"/>
                            <path d="M110.24989,7.93421386 C108.922115,7.44121094 107.547211,7.34734588 106.16698,7.60949152 C104.328175,7.95831434 102.777874,8.85383767 101.491079,10.5497508 C102.14841,7.06997889 102.768039,3.79146717 103.397093,0.460526316 L97.1372867,0.460526316 C95.4607651,9.36037069 93.7867024,18.246685 92.1052632,27.1710526 L98.3302357,27.1710526 C98.3769537,26.9993895 98.4261306,26.8594376 98.4531779,26.7144118 C98.9564212,24.0240365 99.4432722,21.3302787 99.9620883,18.6432859 C100.308375,16.8513937 101.12758,15.3326402 102.569692,14.2269776 C103.462662,13.5424392 104.464641,13.2096834 105.589562,13.3864203 C106.182553,13.4794397 106.585393,13.8172693 106.67801,14.4362713 C106.736612,14.8286441 106.76366,15.2476543 106.697271,15.6349533 C106.388686,17.4336107 106.045267,19.2259258 105.708816,21.0195093 C105.326875,23.057903 104.939198,25.0946055 104.550291,27.1516031 L110.807638,27.1516031 C111.445708,23.7648506 112.09935,20.4334869 112.691112,17.0902844 C112.963634,15.5495446 113.24927,13.9889324 113.287791,12.43128 C113.340657,10.2690013 112.14361,8.63693329 110.24989,7.93421386" id="Fill-5" fill="#fff"/>
                            <path d="M124.420227,22.9089251 C122.095281,23.1772137 120.506641,21.7567432 120.517189,19.4191474 C120.530982,16.5003947 122.850249,13.96908 125.573167,13.9013999 C127.485132,13.8539833 128.798315,14.9575328 129.076205,16.8460898 C129.502574,19.7433632 127.329757,22.5729565 124.420227,22.9089251 M130.512715,9.66754696 C129.957746,9.42397985 129.391823,9.23390834 128.816165,9.09125339 C128.624279,9.04383683 128.431581,9.00168878 128.237261,8.96440396 C127.461603,8.81566997 126.669312,8.74880046 125.864039,8.75001627 C122.1038,8.7443425 118.740721,10.4440438 116.597924,13.1723196 C116.393868,13.4320975 116.20117,13.7011967 116.019831,13.9788064 C115.838493,14.2568215 115.669325,14.5433472 115.512327,14.8383835 C114.963038,15.8702003 114.567095,17.0017134 114.354519,18.2082014 C113.631193,22.3164207 115.672976,25.9160265 119.579665,27.36365 C121.346803,28.0181607 123.176009,28.2151218 125.05836,28.0205923 C129.692026,27.5415635 134.549627,23.9760003 135.308246,18.3585565 C135.821836,14.5583421 134.025895,11.2087878 130.512715,9.66754696" id="Fill-7" fill="#fff"/>
                            <path d="M152.475714,8.24379354 C149.464335,7.18614366 145.876769,8.2044372 143.859505,10.6880295 C143.777718,10.7891131 143.718014,10.908425 143.648496,11.0194513 C143.61987,10.9904519 143.591245,10.9614525 143.56262,10.9324531 C143.747866,10.0666136 143.933522,9.20118833 144.127356,8.29474965 L138.089875,8.29474965 C136.888022,14.5644219 135.687805,20.8253944 134.473684,27.1609367 C136.428791,27.1609367 138.297613,27.1468513 140.165617,27.1708794 C140.607673,27.1766793 140.752026,27.0378964 140.832995,26.5954483 C141.331893,23.8736466 141.801347,21.1427308 142.413928,18.4462 C142.918551,16.2248452 144.107727,14.45091 146.379756,13.730896 C148.40479,13.0887663 149.388273,13.9918907 149.004695,16.1013906 C148.536058,18.6806809 148.02203,21.2521 147.528857,23.8272475 C147.319892,24.9184539 147.114608,26.0100745 146.901554,27.1335944 L153.112422,27.1335944 C153.161903,26.9380556 153.216291,26.762402 153.250641,26.5826057 C153.840322,23.49624 154.43491,20.4111171 155.012732,17.32268 C155.318205,15.6904276 155.792157,14.0768176 155.622042,12.3836664 C155.417575,10.3462507 154.416917,8.92569394 152.475714,8.24379354" id="Fill-9" fill="#fff"/>
                            <path d="M17.9987684,8.26034005 C14.8258588,7.26079805 12.0381639,8.01335537 9.66594467,10.3605386 C9.47374625,10.5507499 9.3085374,10.7687263 9.06235985,11.0525929 C9.27377811,10.0687983 9.45984253,9.20393753 9.65408561,8.2988796 L3.61537491,8.2988796 C2.4135214,14.5721245 1.21371256,20.8350094 0,27.1695861 C2.04752654,27.1695861 3.99895388,27.1795318 5.94956335,27.1476227 C6.08164865,27.1451363 6.28897758,26.8430359 6.32700833,26.6528245 C6.79728105,24.2845067 7.26878057,21.9161889 7.6867099,19.5383398 C8.00894895,17.7041886 8.63052681,16.0428437 10.0433896,14.7780832 C10.9401793,13.9749686 11.9715078,13.5046203 13.193808,13.5945459 C14.1515286,13.6649946 14.59931,14.1515047 14.6160762,15.1261824 C14.6209834,15.4365709 14.5956296,15.752761 14.5412415,16.0581766 C14.3523146,17.1240232 14.1482571,18.186969 13.9437907,19.2495004 C13.4403944,21.863974 12.9329088,24.4776189 12.4188803,27.1351906 L18.6424286,27.1351906 C18.6882291,26.9507809 18.7405725,26.7746592 18.7749229,26.5952224 C19.364604,23.507914 19.9579655,20.4214344 20.5378322,17.3324683 C20.8445318,15.6988885 21.3168492,14.0835424 21.1491867,12.3911173 C20.9471739,10.3539081 19.9591923,8.87780173 17.9987684,8.26034005" id="Fill-11" fill="#fff"/>
                            <path d="M33.5476439,16.0528812 L28.2583006,16.0528812 C28.5443853,14.3165873 30.8113043,12.9604359 32.4081404,13.5409511 C33.3566522,13.8863516 33.7664383,14.7565184 33.5476439,16.0528812 M34.6863416,9.16749404 C31.8730411,8.41690442 29.108093,8.64191971 26.5748332,10.1402711 C22.7328366,12.4122388 21.1166595,15.9547148 21.1863675,20.3148406 C21.2327052,23.2052973 22.5495006,25.442523 25.1025043,26.8160454 C28.950142,28.8860246 33.8832898,28.3479269 37.7059454,25.85054 C37.8086941,25.7834798 37.9162781,25.5717957 37.8840432,25.4728213 C37.4130108,24.0326426 36.9182052,22.6001395 36.4415316,21.2011665 C35.3511863,21.6645283 34.3313548,22.1537447 33.2720356,22.5330793 C32.0527507,22.9693747 30.7851134,23.1152104 29.5098204,22.7451673 C28.0802028,22.3302827 27.2545865,21.1324904 27.3835261,19.6034367 L28.0866497,19.6034367 C31.5132191,19.6034367 34.9393855,19.5961651 38.3659549,19.6123242 C38.800723,19.6143441 39.0453053,19.5080981 39.1218632,19.0516039 C39.2657114,18.1923444 39.5308434,17.3439923 39.5856427,16.481097 C39.7871108,13.3062403 38.4566155,10.1729933 34.6863416,9.16749404" id="Fill-13" fill="#fff"/>
                            <path d="M168.948737,16.0574037 L163.665646,16.0574037 C163.928735,14.3083176 166.252683,12.9393447 167.855753,13.5626333 C168.76369,13.9156821 169.152289,14.768412 168.948737,16.0574037 M170.892937,9.44803956 C168.350955,8.47170214 165.76955,8.53916111 163.24567,9.52761692 C159.027001,11.1805639 156.385657,15.4777412 156.590013,20.3626599 C156.722764,23.5336358 158.255838,25.827645 161.146191,27.13643 C163.250095,28.0893386 165.477497,28.2791932 167.741507,27.9281641 C169.764955,27.614702 171.623068,26.852456 173.356475,25.6818205 C172.834321,24.1504613 172.322224,22.6481862 171.83024,21.2044833 C170.712315,21.6791198 169.692143,22.1727418 168.630134,22.5476037 C167.41164,22.9778062 166.144471,23.1199951 164.874083,22.7370544 C163.477783,22.3161426 162.661163,21.116827 162.794718,19.6056651 L163.544561,19.6056651 C166.944598,19.6056651 170.344635,19.599202 173.744269,19.614148 C174.171486,19.6161677 174.397566,19.5147773 174.512616,19.0647815 C174.870642,17.6590495 175.134937,16.2541254 174.926156,14.7922449 C174.563303,12.2586957 173.313432,10.3779232 170.892937,9.44803956" id="Fill-15" fill="#fff"/>
                            <path d="M50.152782,22.1727212 C48.216684,22.0913601 47.4594526,21.1674889 47.8045086,19.2846235 C48.113978,17.5924899 48.5081348,15.9132496 48.7576923,14.2131132 C48.8748132,13.4172858 49.216716,13.2598987 49.9469196,13.2990232 C51.0676761,13.3590437 52.1947392,13.3150287 53.3186491,13.3150287 C53.665507,11.5233055 53.9938959,9.82539213 54.3421053,8.02477703 L50.0018763,8.02477703 C50.3883751,6.03876525 50.7564049,4.1474525 51.1307412,2.22368421 L44.5629635,2.22368421 C44.5021507,2.48688523 44.4417884,2.72296588 44.3935887,2.96171411 C44.0908763,4.47289701 43.7714967,5.98185692 43.5012178,7.49881958 C43.4205846,7.95141863 43.2322902,8.08746511 42.7885824,8.06301231 C42.1786529,8.02922299 41.5642188,8.03144597 40.9551903,8.07101504 C40.7876174,8.08212995 40.5195908,8.25907929 40.4903106,8.39868253 C40.1520115,10.0103442 39.851101,11.6291194 39.5263158,13.3199192 L42.0777488,13.3199192 C42.043063,13.5608904 42.0268463,13.734283 41.9930614,13.9041188 C41.5475516,16.1391045 41.0826719,18.3705334 40.6574331,20.6090759 C40.0709278,23.6959082 41.5696244,26.3457023 44.5453953,27.4607499 C46.4008601,28.1560985 48.3333544,28.3050383 50.2946784,28.0627333 C50.4590981,28.0427264 50.7027996,27.8479933 50.7334312,27.6990535 C51.1095694,25.8846559 51.4528236,24.0631448 51.8172497,22.176278 C51.2307444,22.176278 50.6906371,22.1953956 50.152782,22.1727212" id="Fill-17" fill="#fff"/>
                        </g>
                    </g>
                </g>
            </g>
        </g>
    </g>
</svg>