<svg id="visual" viewBox="0 0 900 600" width="900" height="600" xmlns="http://www.w3.org/2000/svg" xmlns:xlink="http://www.w3.org/1999/xlink" version="1.1"><path d="M782 600L735.5 587.5C689 575 596 550 551 525C506 500 509 475 554 450C599 425 686 400 720.5 375C755 350 737 325 716 300C695 275 671 250 672.5 225C674 200 701 175 690.5 150C680 125 632 100 617 75C602 50 620 25 629 12.5L638 0L900 0L900 12.5C900 25 900 50 900 75C900 100 900 125 900 150C900 175 900 200 900 225C900 250 900 275 900 300C900 325 900 350 900 375C900 400 900 425 900 450C900 475 900 500 900 525C900 550 900 575 900 587.5L900 600Z" fill="#6e6eb1"></path><path d="M620 600L582.5 587.5C545 575 470 550 435.5 525C401 500 407 475 456.5 450C506 425 599 400 635 375C671 350 650 325 617 300C584 275 539 250 528.5 225C518 200 542 175 539 150C536 125 506 100 485 75C464 50 452 25 446 12.5L440 0L639 0L630 12.5C621 25 603 50 618 75C633 100 681 125 691.5 150C702 175 675 200 673.5 225C672 250 696 275 717 300C738 325 756 350 721.5 375C687 400 600 425 555 450C510 475 507 500 552 525C597 550 690 575 736.5 587.5L783 600Z" fill="#5b5ca5"></path><path d="M476 600L441.5 587.5C407 575 338 550 317 525C296 500 323 475 383 450C443 425 536 400 566 375C596 350 563 325 534.5 300C506 275 482 250 470 225C458 200 458 175 435.5 150C413 125 368 100 351.5 75C335 50 347 25 353 12.5L359 0L441 0L447 12.5C453 25 465 50 486 75C507 100 537 125 540 150C543 175 519 200 529.5 225C540 250 585 275 618 300C651 325 672 350 636 375C600 400 507 425 457.5 450C408 475 402 500 436.5 525C471 550 546 575 583.5 587.5L621 600Z" fill="#484a9a"></path><path d="M350 600L330.5 587.5C311 575 272 550 257 525C242 500 251 475 296 450C341 425 422 400 444.5 375C467 350 431 325 414.5 300C398 275 401 250 399.5 225C398 200 392 175 366.5 150C341 125 296 100 270.5 75C245 50 239 25 236 12.5L233 0L360 0L354 12.5C348 25 336 50 352.5 75C369 100 414 125 436.5 150C459 175 459 200 471 225C483 250 507 275 535.5 300C564 325 597 350 567 375C537 400 444 425 384 450C324 475 297 500 318 525C339 550 408 575 442.5 587.5L477 600Z" fill="#3a3e8c"></path><path d="M53 600L59 587.5C65 575 77 550 96.5 525C116 500 143 475 156.5 450C170 425 170 400 159.5 375C149 350 128 325 111.5 300C95 275 83 250 77 225C71 200 71 175 78.5 150C86 125 101 100 113 75C125 50 134 25 138.5 12.5L143 0L234 0L237 12.5C240 25 246 50 271.5 75C297 100 342 125 367.5 150C393 175 399 200 400.5 225C402 250 399 275 415.5 300C432 325 468 350 445.5 375C423 400 342 425 297 450C252 475 243 500 258 525C273 550 312 575 331.5 587.5L351 600Z" fill="#33377c"></path><path d="M0 600L0 587.5C0 575 0 550 0 525C0 500 0 475 0 450C0 425 0 400 0 375C0 350 0 325 0 300C0 275 0 250 0 225C0 200 0 175 0 150C0 125 0 100 0 75C0 50 0 25 0 12.5L0 0L144 0L139.5 12.5C135 25 126 50 114 75C102 100 87 125 79.5 150C72 175 72 200 78 225C84 250 96 275 112.5 300C129 325 150 350 160.5 375C171 400 171 425 157.5 450C144 475 117 500 97.5 525C78 550 66 575 60 587.5L54 600Z" fill="#2c316d"></path></svg>