<svg id="visual" viewBox="0 0 900 600" width="900" height="600" xmlns="http://www.w3.org/2000/svg" xmlns:xlink="http://www.w3.org/1999/xlink" version="1.1"><path d="M0 55L13.7 59C27.3 63 54.7 71 82 78C109.3 85 136.7 91 163.8 85C191 79 218 61 245.2 54C272.3 47 299.7 51 327 51C354.3 51 381.7 47 409 47C436.3 47 463.7 51 491 51C518.3 51 545.7 47 573 48C600.3 49 627.7 55 654.8 62C682 69 709 77 736.2 82C763.3 87 790.7 89 818 82C845.3 75 872.7 59 886.3 51L900 43L900 0L886.3 0C872.7 0 845.3 0 818 0C790.7 0 763.3 0 736.2 0C709 0 682 0 654.8 0C627.7 0 600.3 0 573 0C545.7 0 518.3 0 491 0C463.7 0 436.3 0 409 0C381.7 0 354.3 0 327 0C299.7 0 272.3 0 245.2 0C218 0 191 0 163.8 0C136.7 0 109.3 0 82 0C54.7 0 27.3 0 13.7 0L0 0Z" fill="#6e6eb1"></path><path d="M0 157L13.7 155C27.3 153 54.7 149 82 155C109.3 161 136.7 177 163.8 184C191 191 218 189 245.2 186C272.3 183 299.7 179 327 173C354.3 167 381.7 159 409 148C436.3 137 463.7 123 491 119C518.3 115 545.7 121 573 130C600.3 139 627.7 151 654.8 155C682 159 709 155 736.2 162C763.3 169 790.7 187 818 198C845.3 209 872.7 213 886.3 215L900 217L900 41L886.3 49C872.7 57 845.3 73 818 80C790.7 87 763.3 85 736.2 80C709 75 682 67 654.8 60C627.7 53 600.3 47 573 46C545.7 45 518.3 49 491 49C463.7 49 436.3 45 409 45C381.7 45 354.3 49 327 49C299.7 49 272.3 45 245.2 52C218 59 191 77 163.8 83C136.7 89 109.3 83 82 76C54.7 69 27.3 61 13.7 57L0 53Z" fill="#5757a3"></path><path d="M0 415L13.7 389C27.3 363 54.7 311 82 292C109.3 273 136.7 287 163.8 304C191 321 218 341 245.2 357C272.3 373 299.7 385 327 366C354.3 347 381.7 297 409 281C436.3 265 463.7 283 491 301C518.3 319 545.7 337 573 334C600.3 331 627.7 307 654.8 305C682 303 709 323 736.2 328C763.3 333 790.7 323 818 319C845.3 315 872.7 317 886.3 318L900 319L900 215L886.3 213C872.7 211 845.3 207 818 196C790.7 185 763.3 167 736.2 160C709 153 682 157 654.8 153C627.7 149 600.3 137 573 128C545.7 119 518.3 113 491 117C463.7 121 436.3 135 409 146C381.7 157 354.3 165 327 171C299.7 177 272.3 181 245.2 184C218 187 191 189 163.8 182C136.7 175 109.3 159 82 153C54.7 147 27.3 151 13.7 153L0 155Z" fill="#3e4194"></path><path d="M0 535L13.7 534C27.3 533 54.7 531 82 527C109.3 523 136.7 517 163.8 514C191 511 218 511 245.2 511C272.3 511 299.7 511 327 507C354.3 503 381.7 495 409 490C436.3 485 463.7 483 491 486C518.3 489 545.7 497 573 506C600.3 515 627.7 525 654.8 523C682 521 709 507 736.2 510C763.3 513 790.7 533 818 541C845.3 549 872.7 545 886.3 543L900 541L900 317L886.3 316C872.7 315 845.3 313 818 317C790.7 321 763.3 331 736.2 326C709 321 682 301 654.8 303C627.7 305 600.3 329 573 332C545.7 335 518.3 317 491 299C463.7 281 436.3 263 409 279C381.7 295 354.3 345 327 364C299.7 383 272.3 371 245.2 355C218 339 191 319 163.8 302C136.7 285 109.3 271 82 290C54.7 309 27.3 361 13.7 387L0 413Z" fill="#353980"></path><path d="M0 601L13.7 601C27.3 601 54.7 601 82 601C109.3 601 136.7 601 163.8 601C191 601 218 601 245.2 601C272.3 601 299.7 601 327 601C354.3 601 381.7 601 409 601C436.3 601 463.7 601 491 601C518.3 601 545.7 601 573 601C600.3 601 627.7 601 654.8 601C682 601 709 601 736.2 601C763.3 601 790.7 601 818 601C845.3 601 872.7 601 886.3 601L900 601L900 539L886.3 541C872.7 543 845.3 547 818 539C790.7 531 763.3 511 736.2 508C709 505 682 519 654.8 521C627.7 523 600.3 513 573 504C545.7 495 518.3 487 491 484C463.7 481 436.3 483 409 488C381.7 493 354.3 501 327 505C299.7 509 272.3 509 245.2 509C218 509 191 509 163.8 512C136.7 515 109.3 521 82 525C54.7 529 27.3 531 13.7 532L0 533Z" fill="#2c316d"></path></svg>