<svg id="visual" viewBox="0 0 900 600" width="900" height="600" xmlns="http://www.w3.org/2000/svg" xmlns:xlink="http://www.w3.org/1999/xlink" version="1.1"><path d="M0 148L18.8 146C37.7 144 75.3 140 112.8 133.5C150.3 127 187.7 118 225.2 110.2C262.7 102.3 300.3 95.7 337.8 100.8C375.3 106 412.7 123 450.2 129C487.7 135 525.3 130 562.8 123C600.3 116 637.7 107 675.2 108.8C712.7 110.7 750.3 123.3 787.8 132.7C825.3 142 862.7 148 881.3 151L900 154L900 0L881.3 0C862.7 0 825.3 0 787.8 0C750.3 0 712.7 0 675.2 0C637.7 0 600.3 0 562.8 0C525.3 0 487.7 0 450.2 0C412.7 0 375.3 0 337.8 0C300.3 0 262.7 0 225.2 0C187.7 0 150.3 0 112.8 0C75.3 0 37.7 0 18.8 0L0 0Z" fill="#3e4194" stroke-linecap="round" stroke-linejoin="miter"></path></svg>