<svg id="visual" viewBox="0 0 900 600" width="900" height="600" xmlns="http://www.w3.org/2000/svg" xmlns:xlink="http://www.w3.org/1999/xlink" version="1.1"><path d="M0 73L18.8 72.2C37.7 71.3 75.3 69.7 112.8 66.5C150.3 63.3 187.7 58.7 225.2 54.7C262.7 50.7 300.3 47.3 337.8 49.8C375.3 52.3 412.7 60.7 450.2 63.7C487.7 66.7 525.3 64.3 562.8 60.8C600.3 57.3 637.7 52.7 675.2 53.5C712.7 54.3 750.3 60.7 787.8 65.5C825.3 70.3 862.7 73.7 881.3 75.3L900 77L900 0L881.3 0C862.7 0 825.3 0 787.8 0C750.3 0 712.7 0 675.2 0C637.7 0 600.3 0 562.8 0C525.3 0 487.7 0 450.2 0C412.7 0 375.3 0 337.8 0C300.3 0 262.7 0 225.2 0C187.7 0 150.3 0 112.8 0C75.3 0 37.7 0 18.8 0L0 0Z" fill="#3e4194" stroke-linecap="round" stroke-linejoin="miter"></path></svg>