<svg id="visual" viewBox="0 0 900 600" width="900" height="600" xmlns="http://www.w3.org/2000/svg" xmlns:xlink="http://www.w3.org/1999/xlink" version="1.1"><g stroke-width="1" stroke-linejoin="bevel"><path d="M428 290L347.5 315L444 383Z" fill="#eaeaea" stroke="#eaeaea"></path><path d="M347.5 315L345.5 409L444 383Z" fill="#ffffff" stroke="#ffffff"></path><path d="M448 517L547.5 389L444 383Z" fill="#cccccc" stroke="#cccccc"></path><path d="M444 383L555.5 277L428 290Z" fill="#eaeaea" stroke="#eaeaea"></path><path d="M446 177L337.5 200L428 290Z" fill="#dbdbdb" stroke="#dbdbdb"></path><path d="M428 290L337.5 200L347.5 315Z" fill="#cccccc" stroke="#cccccc"></path><path d="M347.5 315L214 394L345.5 409Z" fill="#eaeaea" stroke="#eaeaea"></path><path d="M337.5 200L247 286L347.5 315Z" fill="#dbdbdb" stroke="#dbdbdb"></path><path d="M547.5 389L555.5 277L444 383Z" fill="#e0e0e0" stroke="#e0e0e0"></path><path d="M540.5 214L446 177L428 290Z" fill="#dbdbdb" stroke="#dbdbdb"></path><path d="M345.5 409L448 517L444 383Z" fill="#eaeaea" stroke="#eaeaea"></path><path d="M239 478L322.5 507L345.5 409Z" fill="#ffffff" stroke="#ffffff"></path><path d="M345.5 409L322.5 507L448 517Z" fill="#dbdbdb" stroke="#dbdbdb"></path><path d="M555.5 277L540.5 214L428 290Z" fill="#cccccc" stroke="#cccccc"></path><path d="M247 286L214 394L347.5 315Z" fill="#e5e5e5" stroke="#e5e5e5"></path><path d="M214 394L239 478L345.5 409Z" fill="#f5f5f5" stroke="#f5f5f5"></path><path d="M337.5 200L229 186L247 286Z" fill="#d1d1d1" stroke="#d1d1d1"></path><path d="M96.5 285L113.5 412L214 394Z" fill="#ffffff" stroke="#ffffff"></path><path d="M239 115L229 186L337.5 200Z" fill="#d6d6d6" stroke="#d6d6d6"></path><path d="M448 517L559.5 519L547.5 389Z" fill="#f5f5f5" stroke="#f5f5f5"></path><path d="M547.5 389L660 316L555.5 277Z" fill="#e5e5e5" stroke="#e5e5e5"></path><path d="M663 377L660 316L547.5 389Z" fill="#fafafa" stroke="#fafafa"></path><path d="M555.5 277L679 220L540.5 214Z" fill="#dbdbdb" stroke="#dbdbdb"></path><path d="M460 81L344.5 85L446 177Z" fill="#fafafa" stroke="#fafafa"></path><path d="M446 177L344.5 85L337.5 200Z" fill="#dbdbdb" stroke="#dbdbdb"></path><path d="M448 517L462 600L559.5 519Z" fill="#d1d1d1" stroke="#d1d1d1"></path><path d="M337.5 600L462 600L448 517Z" fill="#eaeaea" stroke="#eaeaea"></path><path d="M337.5 600L448 517L322.5 507Z" fill="#cccccc" stroke="#cccccc"></path><path d="M221 600L337.5 600L322.5 507Z" fill="#e5e5e5" stroke="#e5e5e5"></path><path d="M685 482L663 377L547.5 389Z" fill="#dbdbdb" stroke="#dbdbdb"></path><path d="M553.5 97L446 177L540.5 214Z" fill="#fafafa" stroke="#fafafa"></path><path d="M553.5 97L460 81L446 177Z" fill="#dbdbdb" stroke="#dbdbdb"></path><path d="M344.5 85L239 115L337.5 200Z" fill="#eaeaea" stroke="#eaeaea"></path><path d="M664 117L553.5 97L540.5 214Z" fill="#cccccc" stroke="#cccccc"></path><path d="M214 394L113.5 412L239 478Z" fill="#eaeaea" stroke="#eaeaea"></path><path d="M239 478L221 600L322.5 507Z" fill="#f5f5f5" stroke="#f5f5f5"></path><path d="M96.5 285L214 394L247 286Z" fill="#d6d6d6" stroke="#d6d6d6"></path><path d="M96.5 285L247 286L102.5 207Z" fill="#e0e0e0" stroke="#e0e0e0"></path><path d="M462 600L545.5 600L559.5 519Z" fill="#eaeaea" stroke="#eaeaea"></path><path d="M559.5 519L685 482L547.5 389Z" fill="#fafafa" stroke="#fafafa"></path><path d="M787.5 280L679 220L660 316Z" fill="#f5f5f5" stroke="#f5f5f5"></path><path d="M660 316L679 220L555.5 277Z" fill="#e0e0e0" stroke="#e0e0e0"></path><path d="M102.5 207L247 286L229 186Z" fill="#e0e0e0" stroke="#e0e0e0"></path><path d="M101.5 495L221 600L239 478Z" fill="#fafafa" stroke="#fafafa"></path><path d="M660 600L685 482L559.5 519Z" fill="#eaeaea" stroke="#eaeaea"></path><path d="M663 377L787.5 280L660 316Z" fill="#dbdbdb" stroke="#dbdbdb"></path><path d="M103.5 82L102.5 207L229 186Z" fill="#e0e0e0" stroke="#e0e0e0"></path><path d="M0 418L101.5 495L113.5 412Z" fill="#fafafa" stroke="#fafafa"></path><path d="M113.5 412L101.5 495L239 478Z" fill="#eaeaea" stroke="#eaeaea"></path><path d="M582.5 0L429 0L460 81Z" fill="#d1d1d1" stroke="#d1d1d1"></path><path d="M460 81L429 0L344.5 85Z" fill="#d1d1d1" stroke="#d1d1d1"></path><path d="M344.5 85L218 0L239 115Z" fill="#f5f5f5" stroke="#f5f5f5"></path><path d="M429 0L356.5 0L344.5 85Z" fill="#eaeaea" stroke="#eaeaea"></path><path d="M239 115L103.5 82L229 186Z" fill="#cccccc" stroke="#cccccc"></path><path d="M679 220L664 117L540.5 214Z" fill="#f5f5f5" stroke="#f5f5f5"></path><path d="M553.5 97L582.5 0L460 81Z" fill="#d1d1d1" stroke="#d1d1d1"></path><path d="M545.5 600L660 600L559.5 519Z" fill="#ffffff" stroke="#ffffff"></path><path d="M356.5 0L218 0L344.5 85Z" fill="#e0e0e0" stroke="#e0e0e0"></path><path d="M664 117L582.5 0L553.5 97Z" fill="#efefef" stroke="#efefef"></path><path d="M679 220L771.5 189L664 117Z" fill="#ffffff" stroke="#ffffff"></path><path d="M664 117L666 0L582.5 0Z" fill="#e0e0e0" stroke="#e0e0e0"></path><path d="M803.5 408L787.5 280L663 377Z" fill="#efefef" stroke="#efefef"></path><path d="M803.5 408L663 377L685 482Z" fill="#e5e5e5" stroke="#e5e5e5"></path><path d="M0 209L0 303L96.5 285Z" fill="#dbdbdb" stroke="#dbdbdb"></path><path d="M218 0L103.5 82L239 115Z" fill="#e0e0e0" stroke="#e0e0e0"></path><path d="M0 493L93.5 600L101.5 495Z" fill="#e0e0e0" stroke="#e0e0e0"></path><path d="M101.5 495L93.5 600L221 600Z" fill="#eaeaea" stroke="#eaeaea"></path><path d="M787.5 280L771.5 189L679 220Z" fill="#ffffff" stroke="#ffffff"></path><path d="M0 209L96.5 285L102.5 207Z" fill="#e0e0e0" stroke="#e0e0e0"></path><path d="M96.5 285L0 303L113.5 412Z" fill="#cccccc" stroke="#cccccc"></path><path d="M0 303L0 418L113.5 412Z" fill="#cccccc" stroke="#cccccc"></path><path d="M660 600L766.5 521L685 482Z" fill="#e0e0e0" stroke="#e0e0e0"></path><path d="M766.5 521L803.5 408L685 482Z" fill="#e5e5e5" stroke="#e5e5e5"></path><path d="M0 92L0 209L102.5 207Z" fill="#dbdbdb" stroke="#dbdbdb"></path><path d="M0 418L0 493L101.5 495Z" fill="#cccccc" stroke="#cccccc"></path><path d="M779.5 79L666 0L664 117Z" fill="#e5e5e5" stroke="#e5e5e5"></path><path d="M218 0L102.5 0L103.5 82Z" fill="#fafafa" stroke="#fafafa"></path><path d="M103.5 82L0 92L102.5 207Z" fill="#e5e5e5" stroke="#e5e5e5"></path><path d="M900 88L779.5 79L771.5 189Z" fill="#ffffff" stroke="#ffffff"></path><path d="M771.5 189L779.5 79L664 117Z" fill="#e0e0e0" stroke="#e0e0e0"></path><path d="M900 214L771.5 189L787.5 280Z" fill="#fafafa" stroke="#fafafa"></path><path d="M900 478L900 422L803.5 408Z" fill="#d1d1d1" stroke="#d1d1d1"></path><path d="M660 600L791.5 600L766.5 521Z" fill="#dbdbdb" stroke="#dbdbdb"></path><path d="M0 0L0 92L103.5 82Z" fill="#ffffff" stroke="#ffffff"></path><path d="M0 493L0 600L93.5 600Z" fill="#ffffff" stroke="#ffffff"></path><path d="M803.5 408L900 321L787.5 280Z" fill="#cccccc" stroke="#cccccc"></path><path d="M900 422L900 321L803.5 408Z" fill="#efefef" stroke="#efefef"></path><path d="M900 478L803.5 408L766.5 521Z" fill="#cccccc" stroke="#cccccc"></path><path d="M900 0L774.5 0L779.5 79Z" fill="#eaeaea" stroke="#eaeaea"></path><path d="M779.5 79L774.5 0L666 0Z" fill="#fafafa" stroke="#fafafa"></path><path d="M900 321L900 214L787.5 280Z" fill="#efefef" stroke="#efefef"></path><path d="M900 600L900 478L766.5 521Z" fill="#e0e0e0" stroke="#e0e0e0"></path><path d="M102.5 0L0 0L103.5 82Z" fill="#efefef" stroke="#efefef"></path><path d="M900 214L900 88L771.5 189Z" fill="#d1d1d1" stroke="#d1d1d1"></path><path d="M791.5 600L900 600L766.5 521Z" fill="#e0e0e0" stroke="#e0e0e0"></path><path d="M900 88L900 0L779.5 79Z" fill="#fafafa" stroke="#fafafa"></path></g></svg>